<svg width="149" height="88" viewBox="0 0 149 88" fill="none" xmlns="http://www.w3.org/2000/svg">
<path fill-rule="evenodd" clip-rule="evenodd" d="M127.38 77.8032C141.551 68.6328 148.532 55.9132 148.999 42.0035C149.03 35.615 148.47 31.2342 147.1 26.968C138.407 -0.0556209 106.266 -8.70979 83.8998 9.95367C79.6998 13.4576 76.3816 17.6961 73.9531 22.3574C66.5649 8.50662 51.8899 0.841068 35.495 3.53495C6.58011 8.28943 -9.5138 43.7942 6.0617 68.4821C19.0065 89.0002 43.511 93.0854 61.9339 77.6295C67.0797 73.3167 71.0509 68.4115 73.8638 63.1784C75.9799 67.2576 78.7892 71.0185 82.2966 74.2541C94.7872 85.7762 112.795 87.2389 127.38 77.8032Z" fill="white"/>
<path d="M18.6586 49.2849C18.6702 62.7326 27.8778 71.75 40.4506 70.6338C57.7113 69.0989 70.0114 47.1047 62.2949 31.5756C57.5315 21.9884 48.0685 18.1047 37.9848 21.5931C26.7407 25.4826 18.647 37.0756 18.6586 49.2849Z" fill="#FED44B"/>
<path d="M70.2319 45.2733C69.936 54.407 65.7122 63.4535 57.4386 70.4419C43.6242 82.1221 25.2495 79.0349 15.5429 63.5291C3.86364 44.8721 15.9316 18.0407 37.6134 14.4477C55.4137 11.5 70.5104 24.9652 70.2319 45.2675V45.2733ZM18.6586 49.2849C18.6702 62.7326 27.8778 71.75 40.4506 70.6338C57.7113 69.0989 70.0114 47.1047 62.2948 31.5756C57.5315 21.9884 48.0685 18.1047 37.9848 21.5931C26.7406 25.4826 18.6469 37.0756 18.6586 49.2849Z" fill="#33141B"/>
<path d="M133.218 41.4416C133.032 36.9939 131.988 32.8021 130.119 28.8021C123.598 14.837 107.567 10.9242 96.3579 20.5695C84.6264 30.6626 82.2534 49.8835 91.1652 62.5812C98.3132 72.7614 111.176 75.1974 120.958 68.0056C129.87 61.4533 133.107 52.1219 133.218 41.4474V41.4416Z" fill="#FED44B"/>
<path d="M140 43.0581C139.652 54.3372 134.448 64.6511 123.882 72.0872C113.009 79.7383 99.5838 78.5523 90.2718 69.2092C76.5792 55.4709 77.1594 30.0523 91.4669 17.0697C108.142 1.93599 132.104 8.95343 138.584 30.8662C139.606 34.3255 140.023 37.8779 140 43.0581ZM133.218 41.436C133.032 36.9883 131.988 32.7965 130.119 28.7965C123.598 14.8313 107.567 10.9185 96.358 20.5639C84.6265 30.6569 82.2535 49.8779 91.1652 62.5755C98.3132 72.7558 111.176 75.1918 120.958 67.9999C129.87 61.4476 133.107 52.1162 133.218 41.4418V41.436Z" fill="#33141B"/>
<path d="M43.2123 47.058C43.2123 52.8603 43.2123 58.6568 43.2123 64.4591C43.2123 65.6975 43.4618 67.3254 41.727 67.4126C39.8124 67.5115 39.824 65.7557 39.824 64.4417C39.8066 54.9708 39.853 45.494 39.882 36.0231C39.8878 33.7033 39.9284 31.3836 39.9516 29.0638C39.9632 27.9533 40.0271 26.7266 41.4775 26.7498C42.8584 26.7731 43.0383 27.9301 43.0383 29.0754C43.0383 35.0696 43.0383 41.0638 43.0383 47.058C43.1021 47.058 43.1601 47.058 43.2239 47.058H43.2123Z" fill="#33141B"/>
<path d="M106.749 44.7094C106.749 39.4827 106.732 34.2559 106.761 29.035C106.767 27.692 106.674 26.0001 108.623 26.0757C110.329 26.1396 110.259 27.7094 110.248 28.971C110.149 39.5175 110.027 50.0641 109.911 60.6048C109.894 61.9071 109.813 63.3606 108.049 63.2617C106.279 63.1687 106.413 61.6048 106.401 60.378C106.36 55.1571 106.384 49.9303 106.384 44.7094C106.506 44.7094 106.627 44.7094 106.749 44.7094Z" fill="#33141B"/>
<path d="M63.8961 73.5291C65.2886 70.7268 68.8103 72.2965 72.1696 72.1338C75.529 71.971 78.3951 71.2326 79.2132 72.9535C80.0312 74.6745 78.9695 80.75 76.5907 82.8024C74.2119 84.8547 71.9666 84.0349 69.1178 82.064C66.2691 80.0931 62.1613 77.0117 63.8961 73.5291Z" fill="#FB6275"/>
</svg>
