<svg width="171" height="276" viewBox="0 0 171 276" fill="none" xmlns="http://www.w3.org/2000/svg">
<path d="M160.295 62.01C155.785 60.85 151.205 59.9401 146.625 59.0801C144.275 58.6401 143.075 57.88 142.585 55.12C141.485 48.9 140.115 42.67 138.085 36.7C134.435 25.99 130.245 15.46 126.205 4.88004C125.225 2.31004 123.665 0.0100331 120.515 3.30613e-05C117.395 -0.00996694 115.875 2.25002 114.705 4.77002C114.285 5.68002 113.935 6.61004 113.565 7.54004C108.055 21.7 104.035 36.31 101.005 51.18C100.375 54.29 99.2253 55.3 96.0153 54.88C89.0853 53.97 82.1153 53.21 75.1353 52.9C71.7853 52.75 70.6353 51.61 70.0253 48.42C67.7653 36.65 65.2453 24.92 62.6653 13.21C61.9553 9.98002 60.8453 6.81003 59.6553 3.72003C58.8453 1.61003 57.2353 0.0700221 54.7753 0.0200221C52.2553 -0.0299779 50.7653 1.57003 49.9053 3.68003C48.7753 6.45003 47.7453 9.27005 46.8853 12.14C43.3453 23.96 40.5253 35.96 38.2053 48.06C37.5353 51.54 36.0753 53 32.6053 52.75C28.4553 52.45 24.2953 52.31 20.1353 52.09C11.5453 51.64 8.57527 54 7.40527 62.46C6.97527 65.59 6.76527 68.76 6.55527 71.92C4.72527 98.72 5.69527 125.55 5.74527 152.37C5.74527 154.53 6.03527 156.69 6.19527 158.85C6.44527 162.21 7.78527 164.63 10.8853 166.5C14.6553 168.77 17.5653 172.33 18.3153 176.75C20.3753 188.93 15.1253 200.52 4.22527 203.97C1.00527 204.99 -0.264726 207.18 0.0452737 210.43C0.215274 212.25 0.385274 214.08 0.555274 215.9C1.70527 233.52 3.76527 251.05 5.85527 268.58C6.58527 274.69 7.45527 275.58 13.7753 275.43C22.0953 275.24 30.4653 275.24 38.7153 274.33C74.0453 270.45 109.535 270.21 144.985 268.93C152.435 268.66 154.935 266.43 154.675 258.93C154.225 245.79 153.695 232.66 152.995 219.53C152.425 208.94 152.295 208.95 142.205 205.8C135.165 203.6 129.975 195.34 130.675 187.45C131.415 179.21 136.755 173.68 145.045 172.94C148.785 172.6 151.055 170.88 151.405 167.2C153.245 148.21 158.895 130 162.755 111.43C165.155 99.86 168.485 88.48 170.235 76.77C171.595 67.67 169.195 64.28 160.275 61.99L160.295 62.01Z" fill="#33141B"/>
<path d="M64.7453 167.84C64.0053 158.11 68.6653 151.99 75.1253 147.62C89.4053 137.96 103.735 140.84 118.115 147.51C119.115 147.97 120.075 146.73 119.335 145.91C118.155 144.59 116.535 143.81 115.005 143.04C103.735 137.38 91.9653 137.57 80.6253 142.01C71.7253 145.49 64.5853 151.68 62.6153 161.83C61.7653 166.2 61.9753 170.74 66.2253 173.5C70.5653 176.32 75.4553 176.03 79.4053 173.06C90.3053 164.85 101.895 165.29 113.985 169.32C114.755 169.58 115.535 170.02 116.575 169.51C117.235 169.18 117.225 168.23 116.545 167.95C102.035 162.02 88.5253 163.21 74.8553 172.83C75.9053 166.57 82.7353 160.14 81.5853 158.74C80.5353 157.46 76.9053 161.44 73.5153 167.74C72.5353 169.56 72.8653 173.98 69.1653 172.31C65.2553 170.55 67.8953 167.18 69.2353 165.06C70.2653 163.43 71.4453 161.69 72.6053 160.29C73.8353 158.8 77.2653 155.64 76.4453 154.88C75.6253 154.12 72.1653 156.65 64.7653 167.84H64.7453Z" fill="white"/>
<path d="M115.595 106.82C123.235 106.87 136.765 94.34 137.445 86.57C137.585 85.02 137.545 83.43 135.715 82.88C133.935 82.35 132.835 83.38 132.305 84.97C131.285 88 129.745 90.69 127.745 93.2C124.205 97.65 120.085 101.83 114.165 101.06C107.955 100.25 105.495 94.98 104.315 89.26C103.975 87.61 103.075 86.4 101.235 86.76C99.5853 87.08 99.5653 88.56 99.5053 89.94C99.1553 97.73 107.765 106.78 115.595 106.83V106.82Z" fill="#FED44B"/>
<path d="M62.9352 104.48C71.0452 104.99 79.1152 93.6301 80.0652 86.8101C80.2352 85.5801 79.6852 84.5101 78.4352 84.0101C77.1352 83.4901 76.0852 84.1401 75.3852 85.1001C74.7152 86.0201 74.3052 87.1401 73.8752 88.2101C71.0552 95.3201 66.5952 99.6001 62.2352 98.8101C55.6752 97.6301 54.4352 92.4101 53.8052 86.8801C53.6252 85.3101 53.2652 83.7201 51.2852 83.8301C49.4952 83.9301 48.9652 85.3901 48.7152 86.9901C47.4452 94.8301 55.1352 104.31 62.9352 104.47V104.48Z" fill="#FED44B"/>
<path d="M82.3353 125.7C77.5753 125.59 74.5753 128.68 74.6653 133.36C74.7253 136.82 76.1153 139.7 79.8953 140.18C84.3353 140.75 92.3553 133.95 91.6653 129.87C90.6753 123.96 85.0353 127.3 82.3353 125.69V125.7Z" fill="#FFC1C4"/>
<path d="M85.9152 107.86C82.8852 108.23 79.0152 107.08 78.5952 111.84C78.3652 114.53 82.5152 119.49 84.7452 119.58C86.8352 119.66 92.3652 113.35 92.0652 110.92C91.5652 106.95 88.4052 107.94 85.9152 107.86Z" fill="#FFC1C4"/>
</svg>
