<svg width="89" height="144" viewBox="0 0 89 144" fill="none" xmlns="http://www.w3.org/2000/svg">
<g id="Group 331">
<path id="Vector" d="M41.8715 45.0196C41.0019 39.4475 37.3045 35.7814 32.6333 35.8647C27.2903 35.9584 23.5825 40.463 23.4575 47.1964C23.3065 49.6596 24.0408 51.9717 26.0926 53.7579C29.2848 56.5336 34.1591 57.3251 37.2055 55.5702C40.5384 53.6486 42.5173 49.17 41.8715 45.0196Z" fill="#FED44B"/>
<path id="Vector_2" d="M63.0399 49.5237C61.4464 52.5337 58.7333 53.7731 54.7286 53.3149C53.9267 53.1899 53.2809 53.0649 52.5363 52.6743C49.8596 50.8413 48.2348 48.3937 48.4691 45.2744C48.7399 41.6863 49.771 38.1973 53.2705 36.2913C55.6868 34.9738 60.0456 36.5048 62.3005 39.2388C64.4824 41.8842 64.7897 46.2117 63.0347 49.5237H63.0399Z" fill="#FED44B"/>
<path id="Vector_3" d="M55.3753 43.7701C55.4118 42.9473 54.9691 42.1974 53.9953 42.2182C52.8809 42.2442 52.5684 43.1139 52.5528 44.0252C52.5216 46.3478 52.532 48.6808 52.5372 51.1232C52.5372 51.7272 52.9225 52.2688 53.4954 52.4615C54.2765 52.7271 55.1306 52.2584 55.2816 51.446C55.7555 48.9151 55.2607 46.3166 55.3753 43.7648V43.7701Z" fill="#33141B"/>
<path id="Vector_4" d="M83.475 32.287C81.1264 31.6829 78.7414 31.209 76.3563 30.7612C75.1325 30.5321 74.5076 30.1363 74.2524 28.699C73.6796 25.4599 72.9661 22.2156 71.909 19.1066C70.0082 13.5293 67.8263 8.04573 65.7224 2.53611C65.2068 1.20297 64.3997 0.0052248 62.7593 1.72169e-05C61.1345 -0.00519036 60.343 1.17172 59.7337 2.48403C59.515 2.95792 59.3327 3.44223 59.14 3.92653C56.2706 11.3005 54.1772 18.9087 52.5993 26.6524C52.2712 28.272 51.6724 28.7979 50.0007 28.5792C46.3919 28.1053 42.7622 27.7096 39.1273 27.5481C37.3828 27.47 36.7839 26.8763 36.4662 25.2151C35.2893 19.0858 33.977 12.9773 32.6334 6.87923C32.2637 5.19718 31.6857 3.54638 31.066 1.93724C30.6441 0.838438 29.8057 0.0312627 28.5247 0.0052248C27.2123 -0.0208131 26.4364 0.8124 25.9886 1.9112C25.4001 3.3537 24.8637 4.82224 24.4159 6.31681C22.5724 12.4722 21.1039 18.7213 19.8957 25.0224C19.5468 26.8347 18.7865 27.595 16.9795 27.4648C14.8183 27.3086 12.652 27.2357 10.4856 27.1211C6.01229 26.8868 4.46564 28.1157 3.85636 32.5214C3.63243 34.1513 3.52307 35.8021 3.41371 37.4477C2.46072 51.404 2.96586 65.376 2.9919 79.3427C2.9919 80.4675 3.14292 81.5924 3.22624 82.7172C3.35643 84.467 4.05424 85.7272 5.66859 86.701C7.63185 87.8831 9.14726 89.737 9.53782 92.0388C10.6106 98.3816 7.87661 104.417 2.20035 106.214C0.523504 106.745 -0.137858 107.885 0.0235766 109.578C0.112105 110.526 0.200634 111.479 0.289163 112.426C0.888035 121.602 1.9608 130.731 3.04918 139.86C3.42933 143.042 3.88239 143.505 7.17358 143.427C11.5063 143.328 15.865 143.328 20.1613 142.854C38.5597 140.834 57.0414 140.709 75.5022 140.042C79.3819 139.902 80.6838 138.74 80.5484 134.835C80.314 127.992 80.038 121.154 79.6735 114.317C79.3767 108.802 79.309 108.807 74.0545 107.167C70.3884 106.021 67.6857 101.72 68.0502 97.6109C68.4356 93.3199 71.2164 90.4401 75.5335 90.0547C77.4811 89.8776 78.6632 88.9819 78.8455 87.0656C79.8037 77.1764 82.746 67.6934 84.7561 58.0229C86.0059 51.9977 87.7401 46.0715 88.6514 39.9734C89.3596 35.2345 88.1098 33.4691 83.4646 32.2766L83.475 32.287ZM37.2057 55.5753C34.1593 57.3303 29.285 56.5387 26.0927 53.7631C24.0357 51.9769 23.3067 49.6647 23.4577 47.2015C23.5827 40.4681 27.2905 35.9636 32.6334 35.8698C37.3046 35.7865 41.0072 39.4526 41.8717 45.0248C42.5174 49.1804 40.5385 53.6589 37.2057 55.5753ZM44.5171 62.2254C43.6839 62.2566 41.0072 59.3612 41.2416 58.0177C41.5957 55.9763 47.4073 55.1118 47.6677 57.8562C47.7823 59.0436 45.5014 62.1941 44.5223 62.2254H44.5171ZM63.0353 49.5241C61.4418 52.5341 58.7286 53.7735 54.724 53.3152C53.922 53.1902 53.2763 53.0653 52.5316 52.6747C49.8549 50.8416 48.2301 48.3941 48.4645 45.2747C48.7353 41.6867 49.7664 38.1976 53.2659 36.2916C55.6822 34.9741 60.0409 36.5052 62.2958 39.2391C64.4778 41.8846 64.785 46.2121 63.0301 49.5241H63.0353Z" fill="#33141B"/>
<path id="Vector_5" d="M34.2061 42.9887C34.2061 42.2701 33.8415 41.5879 33.0031 41.541C32.2011 41.4941 31.7273 42.0201 31.5814 42.7804C30.9409 46.1237 31.0451 49.493 31.269 52.8623C31.3263 53.7632 31.8366 54.6172 32.9146 54.5027C33.9769 54.3881 34.2373 53.5393 34.1748 52.5706C34.0759 51.1073 33.9821 49.9252 33.9873 48.1702C33.9873 46.4153 34.1956 44.7176 34.2061 42.9939V42.9887Z" fill="#33141B"/>
<path id="Vector_6" d="M44.523 62.2254C43.6897 62.2567 41.013 59.3613 41.2474 58.0177C41.6015 55.9763 47.4132 55.1119 47.6735 57.8563C47.7881 59.0436 45.5072 62.1942 44.5282 62.2254H44.523Z" fill="#FFC1C4"/>
</g>
</svg>
