<svg width="115" height="185" viewBox="0 0 115 185" fill="none" xmlns="http://www.w3.org/2000/svg">
<path d="M107.661 41.6485C104.632 40.8694 101.556 40.2582 98.4795 39.6806C96.9011 39.385 96.0952 38.8746 95.7661 37.0208C95.0272 32.8432 94.1071 28.6589 92.7437 24.6492C90.2922 17.456 87.478 10.3836 84.7646 3.27763C84.1064 1.55151 83.0586 0.00673861 80.9429 2.22053e-05C78.8474 -0.0066942 77.8265 1.51121 77.0407 3.20374C76.7586 3.81493 76.5235 4.43957 76.275 5.0642C72.5743 14.5746 69.8743 24.3873 67.8392 34.3746C67.4161 36.4634 66.6437 37.1417 64.4877 36.8597C59.8333 36.2485 55.1519 35.738 50.4639 35.5298C48.2139 35.4291 47.4415 34.6634 47.0318 32.5209C45.5139 24.6157 43.8214 16.7373 42.0885 8.87239C41.6117 6.70299 40.8661 4.57389 40.0669 2.49853C39.5229 1.08136 38.4415 0.0470297 36.7893 0.0134476C35.0968 -0.0201344 34.096 1.05449 33.5184 2.47165C32.7594 4.3321 32.0677 6.22614 31.49 8.15375C29.1124 16.0925 27.2184 24.1522 25.6602 32.2791C25.2102 34.6164 24.2296 35.597 21.899 35.4291C19.1117 35.2276 16.3177 35.1335 13.5237 34.9858C7.75427 34.6835 5.7595 36.2686 4.97368 41.9507C4.68488 44.0529 4.54383 46.182 4.40279 48.3044C3.17369 66.3044 3.82518 84.3245 3.85876 102.338C3.85876 103.789 4.05353 105.239 4.161 106.69C4.32891 108.947 5.22891 110.572 7.31099 111.828C9.84308 113.353 11.7975 115.744 12.3013 118.713C13.6849 126.893 10.1587 134.677 2.83786 136.995C0.675182 137.68 -0.177801 139.151 0.0304076 141.333C0.144587 142.556 0.258765 143.785 0.372944 145.007C1.14533 156.842 2.52891 168.615 3.93264 180.389C4.42294 184.493 5.00726 185.091 9.25203 184.99C14.8401 184.862 20.4617 184.862 26.0027 184.251C49.7318 181.645 73.5683 181.484 97.378 180.624C102.382 180.443 104.061 178.945 103.886 173.908C103.584 165.083 103.228 156.264 102.758 147.445C102.375 140.333 102.288 140.339 95.5108 138.224C90.7825 136.746 87.2967 131.198 87.7668 125.899C88.2638 120.365 91.8504 116.651 97.4183 116.154C99.9302 115.925 101.455 114.77 101.69 112.298C102.926 99.5438 106.721 87.3133 109.313 74.8409C110.925 67.07 113.162 59.4268 114.337 51.5619C115.25 45.4499 113.638 43.1731 107.647 41.635L107.661 41.6485Z" fill="url(#paint0_linear_8_85169)"/>
<path d="M43.4856 112.728C42.9886 106.193 46.1184 102.083 50.4572 99.1476C60.0482 92.6595 69.6728 94.5938 79.331 99.0737C80.0027 99.3826 80.6474 98.5498 80.1504 97.9991C79.3579 97.1125 78.2698 96.5886 77.2422 96.0714C69.6728 92.27 61.7676 92.3976 54.1512 95.3797C48.1736 97.717 43.3781 101.874 42.055 108.692C41.4841 111.627 41.6251 114.676 44.4796 116.53C47.3945 118.424 50.6789 118.229 53.3318 116.234C60.6527 110.72 68.437 111.015 76.5572 113.722C77.0743 113.897 77.5982 114.192 78.2967 113.85C78.74 113.628 78.7333 112.99 78.2766 112.802C68.5311 108.819 59.4572 109.618 50.2759 116.08C50.9811 111.875 55.5684 107.556 54.796 106.616C54.0908 105.756 51.6527 108.43 49.3759 112.661C48.7177 113.883 48.9393 116.852 46.4542 115.73C43.8281 114.548 45.6012 112.285 46.5012 110.861C47.193 109.766 47.9856 108.598 48.7647 107.657C49.5908 106.657 51.8945 104.534 51.3438 104.024C50.793 103.513 48.4692 105.212 43.499 112.728H43.4856Z" fill="white"/>
<path d="M77.6385 71.7447C82.7698 71.7782 91.8571 63.3626 92.3138 58.1439C92.4078 57.1029 92.381 56.035 91.1519 55.6656C89.9564 55.3096 89.2175 56.0014 88.8616 57.0693C88.1765 59.1044 87.1422 60.9111 85.7989 62.5969C83.4213 65.5857 80.6541 68.3932 76.678 67.876C72.5071 67.332 70.8549 63.7924 70.0624 59.9507C69.834 58.8425 69.2295 58.0298 67.9937 58.2716C66.8855 58.4865 66.8721 59.4805 66.8318 60.4074C66.5967 65.6394 72.3795 71.7178 77.6385 71.7514V71.7447Z" fill="#FED44B"/>
<path d="M42.2699 70.173C47.7169 70.5156 53.137 62.8857 53.7751 58.3052C53.8892 57.479 53.5198 56.7604 52.6803 56.4246C51.8072 56.0753 51.1019 56.5119 50.6318 57.1567C50.1818 57.7746 49.9064 58.5268 49.6176 59.2454C47.7236 64.0208 44.7281 66.8954 41.7997 66.3648C37.3938 65.5723 36.5609 62.0663 36.1378 58.3522C36.0169 57.2977 35.7751 56.2298 34.4452 56.3037C33.243 56.3708 32.887 57.3514 32.7191 58.426C31.8661 63.6917 37.0311 70.0589 42.2699 70.1663V70.173Z" fill="#FED44B"/>
<path d="M55.2997 84.4252C52.1027 84.3514 50.0878 86.4267 50.1482 89.57C50.1885 91.8939 51.1221 93.8282 53.6609 94.1506C56.643 94.5334 62.0296 89.9663 61.5661 87.226C60.9012 83.2566 57.1131 85.4999 55.2997 84.4185V84.4252Z" fill="#FFC1C4"/>
<path d="M57.7041 72.4432C55.6691 72.6917 53.0698 71.9193 52.7877 75.1163C52.6332 76.923 55.4205 80.2544 56.9183 80.3148C58.322 80.3685 62.0362 76.1305 61.8347 74.4984C61.4989 71.832 59.3765 72.4969 57.7041 72.4432Z" fill="#FFC1C4"/>
<defs>
<linearGradient id="paint0_linear_8_85169" x1="61.5334" y1="50.1257" x2="161.1" y2="154.934" gradientUnits="userSpaceOnUse">
<stop stop-color="#F683BB"/>
<stop offset="1" stop-color="#FE6565"/>
</linearGradient>
</defs>
</svg>
