<svg width="199" height="175" viewBox="0 0 199 175" fill="none" xmlns="http://www.w3.org/2000/svg">
<g id="Layer_1" clip-path="url(#clip0_8_91334)">
<path id="Vector" d="M198.834 83.4749C198.423 81.3661 196.869 77.6995 191.12 76.8761C190.525 76.7932 189.936 76.6925 189.346 76.5918C190.555 75.4426 191.715 74.2816 192.786 73.1146C194.167 71.6219 198.357 67.0903 195.143 61.2912C192.923 57.2928 189.013 55.9363 183.519 57.275L183.46 57.2868C182.133 57.6126 180.817 57.968 179.514 58.359C180.288 56.7063 181.055 55.0418 181.799 53.3714L181.901 53.1463C184.984 46.4171 181.079 43.0703 179.258 41.9448C176.086 39.9841 172.705 40.3632 169.211 43.0643C169.104 43.1473 169.003 43.2302 168.896 43.3072C164.021 46.8969 159.879 51.073 155.867 55.107C155.79 55.184 155.712 55.261 155.635 55.338C154.48 54.7871 153.1 54.408 151.534 54.485C147.677 54.6805 145.231 57.5297 144.184 58.744C141.696 61.6407 139.333 64.7328 136.964 68.1921C136.75 68.5061 136.536 68.8141 136.321 69.1281C135.315 67.2147 133.506 65.2837 130.167 64.6913C127.465 64.2115 123.703 64.7031 121.162 69.7382C121.144 69.7796 121.12 69.8211 121.102 69.8567L120.37 70.5201L119.87 71.9595C117.507 78.8131 115.341 84.8492 112.942 90.7906C110.901 90.2634 107.776 90.3048 104.318 93.3969C104.175 93.5272 104.033 93.6516 103.89 93.782C104.58 90.5062 105.378 87.2068 106.193 83.8185C107.032 80.3354 107.901 76.728 108.657 73.1205C109.169 70.6741 109.77 68.1566 110.353 65.722C111.395 61.38 112.472 56.884 113.163 52.2637C114.419 43.8996 111.133 39.0126 102.824 36.8979C100.598 36.3293 98.3961 35.8672 96.2832 35.4526C95.5511 31.7029 94.7357 28.5753 93.7656 25.732C92.0038 20.5844 90.0219 15.4724 88.1054 10.5321C87.6054 9.24669 87.1114 7.9672 86.6174 6.68179C84.3021 0.669363 79.6061 0.00592357 77.6956 0H77.6599C74.9458 0 71.22 1.08994 68.8154 6.25529C68.5119 6.90096 68.2738 7.51701 68.0596 8.06198L67.9881 8.23969C65.1015 15.6205 62.7505 23.4751 60.84 32.1828C57.9474 31.8451 55.4297 31.6082 53.0669 31.4542C51.7396 24.7427 50.3052 18.138 49.0494 12.4691C48.5137 10.0582 47.7102 7.84281 47.0019 5.99465C45.6092 2.38127 42.419 0.0888535 38.6753 0.00592357C34.8661 -0.0888535 31.6759 2.11471 30.1403 5.85841C29.3309 7.82504 28.6821 9.64357 28.1524 11.4147C26.2895 17.6167 24.6884 24.0793 23.2719 31.1047C22.4089 31.0573 21.5578 31.0217 20.7186 30.9803C19.8972 30.9447 19.0699 30.9033 18.2485 30.8618C10.0826 30.4294 5.57111 34.1079 4.46407 42.1107C4.19029 44.0773 4.05934 45.9965 3.93436 47.8506L3.9165 48.1172C3.08324 60.296 3.20823 72.5696 3.33322 84.4405C3.37488 88.2967 3.41655 92.2833 3.4225 96.1869C3.4225 97.342 3.52368 98.426 3.61296 99.3856C3.64867 99.7411 3.67843 100.102 3.70819 100.458C4.01173 104.468 5.91632 107.548 9.36244 109.622C9.79692 109.882 10.8147 110.593 10.9873 111.606C11.6182 115.326 10.535 119.875 6.67221 121.096C2.1369 122.523 -0.398589 126.362 0.0537513 131.124L0.351344 134.281C1.05961 145.045 2.36902 156.027 3.52368 165.712C4.29742 172.198 7.36857 175 13.7609 175C13.9335 175 14.112 175 14.2906 174.994C15.1536 174.976 16.0226 174.959 16.8915 174.941C21.0459 174.864 25.3372 174.781 29.6523 174.307C45.7937 172.542 62.3815 172.056 78.4277 171.582C83.0285 171.446 87.778 171.31 92.4621 171.138C97.8902 170.942 104.294 168.697 103.961 159.095C103.949 158.681 103.931 158.26 103.919 157.845C105.61 157.389 107.264 156.898 108.883 156.412C112.24 155.405 115.412 154.457 118.591 153.954C122.221 153.385 124.882 150.625 125.197 147.076C125.293 146.004 125.197 144.997 124.906 144.067C125.531 143.747 126.156 143.427 126.78 143.102C130.584 141.153 134.518 139.133 138.375 137.077C144.243 133.95 144.767 129.815 144.172 126.895C144.16 126.824 144.142 126.753 144.124 126.681C148.445 124.359 152.772 122.037 157.093 119.715C161.021 117.607 164.95 115.498 168.878 113.389L169.211 113.211C170.937 112.287 173.306 111.025 175.109 108.626C177.425 105.552 177.175 102.798 176.693 101.204C179.901 99.8003 183.186 98.3549 186.12 96.9629C188.965 95.6123 191.525 94.3802 194.108 92.9823C197.727 91.0216 199.578 87.2897 198.828 83.4749H198.834Z" fill="white"/>
<g id="Group">
<path id="Vector_2" d="M192.994 84.6068C192.72 83.203 191.506 82.9127 190.274 82.7409C189.096 82.5751 187.929 82.3618 186.751 82.1663C183.691 81.6688 179.894 81.959 176.811 82.1841C174.734 82.3322 174.906 81.6451 175.847 80.4366C179.971 77.0721 184.78 73.0263 188.399 69.1108C189.732 67.6654 191.03 66.1549 189.923 64.1587C188.768 62.0736 186.685 62.6067 184.864 63.045C180.138 64.1942 175.573 65.8173 171.198 67.9675C170.466 68.3289 169.669 69.478 168.913 68.625C168.24 67.8609 168.955 66.7295 169.318 65.9594C171.663 60.9659 174.103 56.0138 176.353 50.9787C176.9 49.7526 177.853 48.0643 176.115 46.9862C174.674 46.0977 173.567 47.241 172.43 48.0762C167.068 52.0272 162.538 56.8608 157.848 61.5286C157.092 62.2809 156.45 63.5249 154.974 62.121C152.385 59.6568 151.051 59.8641 148.7 62.5949C146.254 65.4441 143.998 68.4355 141.874 71.5335C139.701 74.7086 137.451 77.8362 135.196 80.9579C134.868 81.414 134.356 82.0656 133.934 82.0597C133.041 82.0597 133.113 81.0823 132.976 80.4603C132.601 78.7307 132.41 76.9477 131.958 75.2417C131.476 73.4172 131.589 70.9649 129.119 70.5265C126.75 70.1119 126.726 72.7715 125.488 73.8911C122.727 81.8938 119.774 90.1572 116.132 98.5628C115.269 100.553 114.275 101.548 113.537 99.2321C112.275 95.2989 109.99 96.2881 108.287 97.8105C106.21 99.6705 104.371 101.75 102.96 104.125C100.377 108.479 96.8658 112.122 93.866 116.156C93.2351 117.003 92.6161 118.318 91.0568 117.086C88.9498 115.421 87.9082 116.849 87.0214 118.65C86.1286 120.462 86.5453 122.849 84.5633 124.17C84.355 126.332 84.7657 127.879 87.4023 128.329C89.5033 128.69 91.4793 129.756 93.5625 130.313C95.3421 130.793 96.2349 131.729 96.3003 133.595C96.4015 136.734 96.5325 139.874 96.8122 142.995C97.1157 146.402 96.6277 149.861 97.5502 153.225C104.383 152.005 110.799 149.174 117.673 148.096C118.465 147.971 119.191 147.45 119.274 146.55C119.393 145.205 118.304 144.749 117.37 144.186C116.715 143.795 115.578 143.825 115.525 142.907C115.459 141.823 116.644 141.657 117.388 141.272C123.447 138.12 129.547 135.058 135.577 131.847C137.017 131.083 138.755 130.07 138.35 128.062C137.951 126.09 133.047 127.043 132.851 126.238C132.654 125.432 135.416 124.638 136.243 124.188C146.177 118.839 156.122 113.514 166.062 108.171C167.633 107.33 169.264 106.524 170.359 105.067C171.734 103.236 171.097 101.874 168.794 101.732C167.109 101.625 163.044 102.194 160.604 102.656C161.747 101.898 163.223 100.76 163.812 100.482C169.895 97.5913 177.484 94.4992 183.566 91.6085C186.155 90.3764 188.75 89.1324 191.274 87.77C192.441 87.1362 193.28 86.0403 193 84.595L192.994 84.6068Z" fill="#FF95C9"/>
<path id="Vector_3" d="M53.8038 57.133C52.8099 50.7948 48.5841 46.6246 43.2453 46.7194C37.1387 46.826 32.901 51.9499 32.7581 59.609C32.5855 62.4109 33.4247 65.041 35.7697 67.0727C39.4182 70.23 44.9892 71.1304 48.471 69.1341C52.2802 66.9483 54.5419 61.8541 53.8038 57.133Z" fill="#FED44B"/>
<path id="Vector_4" d="M77.9982 62.2567C76.1769 65.6805 73.076 67.0903 68.499 66.569C67.5824 66.4269 66.8444 66.2847 65.9933 65.8404C62.934 63.7553 61.0771 60.9713 61.3449 57.4231C61.6544 53.3417 62.8329 49.3729 66.8325 47.2049C69.5942 45.7062 74.5759 47.4478 77.153 50.5576C79.6468 53.5668 79.998 58.4893 77.9922 62.2567H77.9982Z" fill="#FED44B"/>
<path id="Vector_5" d="M101.354 42.65C98.6693 41.9629 95.9433 41.4239 93.2174 40.9144C91.8187 40.6538 91.1045 40.2036 90.8128 38.5687C90.1581 34.8842 89.3427 31.1939 88.1345 27.6575C85.9621 21.3133 83.4682 15.0758 81.0637 8.80869C80.4804 7.28633 79.5519 5.92391 77.6771 5.91799C75.8201 5.91206 74.9154 7.25079 74.2191 8.74353C73.9691 9.28258 73.7608 9.83347 73.5406 10.3844C70.2611 18.7721 67.8684 27.4265 66.065 36.2348C65.6901 38.077 65.0056 38.6753 63.0951 38.4265C58.9704 37.8875 54.822 37.4373 50.6676 37.2537C48.6737 37.1648 47.9893 36.4895 47.6262 34.5999C46.2811 27.6279 44.7812 20.6795 43.2457 13.743C42.8231 11.8297 42.1624 9.95194 41.4541 8.12156C40.972 6.87168 40.0138 5.95945 38.5496 5.92984C37.0498 5.90022 36.163 6.84799 35.6511 8.09786C34.9785 9.73869 34.3655 11.4091 33.8536 13.1092C31.7467 20.1109 30.0683 27.2191 28.6874 34.3867C28.2887 36.4481 27.4197 37.3129 25.3544 37.1648C22.8844 36.9871 20.4084 36.9042 17.9324 36.7739C12.8198 36.5073 11.0521 37.9053 10.3557 42.9166C10.0998 44.7707 9.97483 46.6484 9.84984 48.5203C8.76065 64.3955 9.33798 80.2884 9.36774 96.1754C9.36774 97.4549 9.54034 98.7344 9.63557 100.014C9.78437 102.004 10.5819 103.438 12.427 104.545C14.6708 105.89 16.4028 107.999 16.8492 110.617C18.0753 117.832 14.9506 124.697 8.46306 126.741C6.54657 127.345 5.79068 128.642 5.97519 130.568C6.07637 131.646 6.17755 132.73 6.27873 133.808C6.9632 144.245 8.18928 154.629 9.43321 165.013C9.8677 168.633 10.3855 169.16 14.1471 169.071C19.099 168.958 24.0807 168.958 28.991 168.419C50.0189 166.121 71.142 165.979 92.2413 165.221C96.6754 165.061 98.1633 163.74 98.0086 159.297C97.7408 151.513 97.4253 143.736 97.0087 135.958C96.6694 129.685 96.5921 129.691 90.5866 127.825C86.3965 126.522 83.3075 121.629 83.7242 116.955C84.1646 112.074 87.3429 108.799 92.277 108.36C94.503 108.159 95.854 107.14 96.0623 104.96C97.1575 93.7112 100.52 82.9244 102.818 71.9243C104.246 65.0707 106.228 58.3297 107.27 51.3932C108.079 46.0028 106.651 43.9947 101.342 42.6382L101.354 42.65ZM48.4714 69.1402C44.9895 71.1365 39.4186 70.2361 35.7701 67.0788C33.4192 65.0471 32.5859 62.417 32.7585 59.6151C32.9013 51.956 37.1391 46.8321 43.2457 46.7255C48.5845 46.6307 52.8162 50.8009 53.8042 57.1391C54.5423 61.8661 52.2806 66.9604 48.4714 69.1402ZM56.8278 76.7046C55.8755 76.7402 52.8162 73.4467 53.0841 71.9184C53.4888 69.5964 60.131 68.613 60.4286 71.7348C60.5596 73.0853 57.9527 76.6691 56.8337 76.7046H56.8278ZM77.9925 62.257C76.1713 65.6809 73.0704 67.0907 68.4934 66.5694C67.5768 66.4272 66.8388 66.2851 65.9877 65.8408C62.9284 63.7557 61.0714 60.9716 61.3393 57.4234C61.6488 53.3421 62.8272 49.3733 66.8269 47.2053C69.5885 45.7066 74.5702 47.4481 77.1474 50.558C79.6412 53.5672 79.9924 58.4897 77.9866 62.257H77.9925Z" fill="#33141B"/>
<path id="Vector_6" d="M56.8335 76.7042C55.8812 76.7398 52.822 73.4463 53.0898 71.918C53.4945 69.5959 60.1368 68.6126 60.4344 71.7344C60.5653 73.0849 57.9584 76.6687 56.8395 76.7042H56.8335Z" fill="#FE9ADC"/>
<path id="Vector_7" d="M45.7158 48.0344C46.8823 48.218 46.9776 49.2902 47.0609 51.7129C47.1442 54.1356 46.6383 56.1437 48.7393 57.903C50.8403 59.6623 51.1736 59.8282 51.0903 60.6634C51.007 61.4986 49.7452 61.8363 49.0726 62.0851C48.4001 62.3339 46.0491 63.175 45.7098 65.1772C45.3706 67.1793 44.8706 68.2693 43.7755 68.2693C42.3054 68.2693 42.0554 66.6995 41.7161 65.7399C41.2757 64.4841 40.2877 63.1454 38.1212 61.8303C36.3654 60.7582 34.7822 60.5746 34.7822 59.07C34.7822 57.5654 36.294 57.3166 38.145 56.9789C39.996 56.6413 41.8411 53.8868 42.1804 52.631C42.5196 51.3752 44.1147 47.7796 45.7098 48.0344H45.7158Z" fill="white"/>
<path id="Vector_8" d="M71.8736 47.3536C72.9568 47.3595 73.7008 48.9233 73.7782 51.1565C73.8556 53.3897 74.0282 54.1123 75.9625 55.7295C77.8969 57.3466 78.0754 57.9923 78.004 58.7623C77.9326 59.5324 76.8077 60.0181 76.147 60.0715C74.0044 60.2492 71.82 61.3036 71.0225 63.2524C70.3142 64.988 69.7488 65.9891 68.7489 65.9891C67.3978 65.9891 67.4157 63.9099 67.2312 62.9918C66.9514 61.5997 66.4931 60.415 65.273 59.3962C63.8207 58.1818 62.4102 58.3951 62.4102 57.009C62.4102 55.6229 64.3981 55.6821 66.1003 55.3741C67.8025 55.066 69.0465 52.59 69.356 51.4349C69.6655 50.2798 70.213 47.3417 71.8795 47.3536H71.8736Z" fill="white"/>
</g>
</g>
<defs>
<clipPath id="clip0_8_91334">
<rect width="199" height="175" fill="white"/>
</clipPath>
</defs>
</svg>
