<svg width="145" height="77" viewBox="0 0 145 77" fill="none" xmlns="http://www.w3.org/2000/svg">
<g id="fa-solid:barcode">
<g id="Union">
<path d="M0 10V67H4.12245V10H0Z" fill="#212121"/>
<path d="M6.15093 10V66.9595H8.2449V10H6.15093Z" fill="#212121"/>
<path d="M12.3674 10V66.9595H14.3958V10H12.3674Z" fill="#212121"/>
<path d="M22.6407 10V66.9595H24.6692V10H22.6407Z" fill="#212121"/>
<path d="M30.8856 10V66.9595H34.9426V10H30.8856Z" fill="#212121"/>
<path d="M41.159 10V66.9595H43.1875V10H41.159Z" fill="#212121"/>
<path d="M45.2815 10V66.9595H47.31V10H45.2815Z" fill="#212121"/>
<path d="M49.4039 10V66.9595H51.4324V10H49.4039Z" fill="#212121"/>
<path d="M57.5836 10V66.9595H61.706V10H57.5836Z" fill="#212121"/>
<path d="M67.8569 10V66.9595H71.9794V10H67.8569Z" fill="#212121"/>
<path d="M76.1016 10V66.9595H80.2243V10H76.1016Z" fill="#212121"/>
<path d="M84.3467 10V66.9595H88.4694V10H84.3467Z" fill="#212121"/>
<path d="M90.4977 10V66.9595H94.6201V10H90.4977Z" fill="#212121"/>
<path d="M100.837 10V66.9595H106.987V10H100.837Z" fill="#212121"/>
<path d="M109.016 10V66.9595H111.11V10H109.016Z" fill="#212121"/>
<path d="M113.138 10V67H117.261V10H113.138Z" fill="#212121"/>
<path d="M122.304 10V67H125.984V10H122.304Z" fill="#212121"/>
<path d="M127.794 10V66.9595H129.663V10H127.794Z" fill="#212121"/>
<path d="M133.342 10V66.9595H135.152V10H133.342Z" fill="#212121"/>
<path d="M139.957 10V66.9595H144.321V10L139.957 10Z" fill="#212121"/>
</g>
</g>
</svg>
