<svg width="44" height="11" viewBox="0 0 44 11" fill="none" xmlns="http://www.w3.org/2000/svg">
<path fill-rule="evenodd" clip-rule="evenodd" d="M9.12159 10.692V3.324H11.6656V10.164L9.12159 10.692ZM12.0616 1.608L10.3936 3.216L8.72559 1.608L10.3936 0L12.0616 1.608ZM31.2955 10.6922L33.7915 10.1642V5.48419L35.4835 5.31619V2.91619L33.7915 3.08419V0.492188H31.2955V3.31219L29.6035 3.46819V5.86819L31.2955 5.71219V10.6922ZM40.685 5.70055L43.109 5.41255C43.037 4.02055 41.645 3.06055 39.569 3.06055C37.961 3.06055 36.317 3.74455 36.317 5.23255C36.317 6.42055 37.049 6.92455 38.465 7.38055L39.473 7.70455C39.6387 7.75979 39.8107 7.8111 39.975 7.8601C40.4529 8.00269 40.865 8.12565 40.865 8.26855C40.865 8.41255 40.253 8.58055 39.689 8.58055C39.161 8.58055 38.393 8.42455 38.369 7.92055L35.957 8.26855C36.101 9.82855 37.805 10.7045 39.581 10.7045C41.945 10.7045 43.361 9.76855 43.361 8.31655C43.361 7.18855 42.293 6.70855 40.937 6.27655L39.617 5.86855C39.565 5.85229 39.5123 5.83647 39.4601 5.82079C39.1269 5.72077 38.813 5.62653 38.813 5.46055C38.813 5.26855 39.269 5.18455 39.665 5.18455C40.073 5.18455 40.613 5.29255 40.685 5.70055ZM28.7483 10.1883L26.2523 10.6923V9.76827C25.8683 10.4643 25.2563 10.7523 24.3683 10.7523C22.4363 10.7523 20.8643 9.36027 20.8643 6.90027C20.8643 4.42827 22.4363 3.07227 24.3683 3.07227C25.1123 3.07227 25.7603 3.36027 26.2523 3.88827V3.32427H28.7483V10.1883ZM24.8003 8.62827C25.5803 8.62827 26.2523 7.90827 26.2523 6.90027C26.2523 5.86827 25.5803 5.19627 24.8003 5.19627C24.0203 5.19627 23.3603 5.86827 23.3603 6.90027C23.3603 7.90827 24.0203 8.62827 24.8003 8.62827ZM17.7826 6.14427L20.2906 5.89227C19.9066 4.05627 18.4306 3.07227 16.5706 3.07227C14.3986 3.07227 12.7666 4.42827 12.7666 6.90027C12.7666 9.36027 14.3986 10.7523 16.5706 10.7523C18.4666 10.7523 19.9426 9.74427 20.3026 7.86027H17.6986C17.4706 8.37627 17.0746 8.62827 16.5706 8.62827C15.8026 8.62827 15.2626 7.90827 15.2626 6.90027C15.2626 5.86827 15.8026 5.19627 16.5706 5.19627C17.1466 5.19627 17.5786 5.54427 17.7826 6.14427ZM2.82 10.6922L5.4 10.1642V2.73619H8.22V0.492188H0V2.73619H2.82V10.6922Z" fill="#F16AAB"/>
</svg>
