<svg width="24" height="24" viewBox="0 0 24 24" fill="none" xmlns="http://www.w3.org/2000/svg">
<path d="M20.2157 11.2886C20.883 10.7095 20.5264 9.61293 19.6462 9.53703L14.81 9.12L12.9212 4.67023C12.5763 3.85763 11.4245 3.85794 11.08 4.67073L9.19 9.13L4.36163 9.53964C3.4802 9.61442 3.1228 10.7127 3.79139 11.2919L7.46 14.47L6.35841 19.192C6.15745 20.0535 7.09168 20.7325 7.849 20.2754L12 17.77L16.1548 20.2777C16.9116 20.7344 17.8454 20.0567 17.6457 19.1957L16.55 14.47L20.2157 11.2886ZM12 15.9L8.24 18.17L9.24 13.89L5.92 11.01L10.3 10.63L12 6.6L13.71 10.64L18.09 11.02L14.77 13.9L15.77 18.18L12 15.9Z" fill="#212121"/>
<path d="M9.5 10L12 5.5V16.5L7 19.5L8 14L4.5 10.5L9.5 10Z" fill="#212121"/>
</svg>
