<svg width="65" height="100" viewBox="0 0 65 100" fill="none" xmlns="http://www.w3.org/2000/svg">
<path d="M37.5319 10.2465H38.1008L38.3915 9.75752C39.7557 7.46301 41.3314 5.0249 42.7868 3.27118C43.5194 2.38847 44.1802 1.73022 44.7318 1.34504C45.0061 1.15351 45.2131 1.05827 45.3547 1.02007C45.4219 1.00195 45.464 0.999471 45.4856 1.00008C45.5032 1.00058 45.5102 1.00308 45.5121 1.0039C45.7112 1.08673 46.0388 1.33833 46.4727 1.87561C46.8888 2.39101 47.333 3.08068 47.7903 3.90204C48.7039 5.54274 49.6155 7.60872 50.4179 9.61744L50.6692 10.2465H51.3465H60.5631C62.2983 10.2465 63.7049 11.6531 63.7049 13.3882V51.6471C58.9781 52.5195 55.3981 56.6613 55.3981 61.6402C55.3981 66.6191 58.9781 70.7609 63.7049 71.6333V95.8585C63.7049 97.5936 62.2983 99.0003 60.5631 99.0003H4.2897C2.55456 99.0003 1.14795 97.5936 1.14795 95.8585V71.6327C5.87312 70.7589 9.45136 66.618 9.45136 61.6402C9.45136 56.6625 5.87312 52.5215 1.14795 51.6477V13.3882C1.14795 11.6531 2.55456 10.2465 4.2897 10.2465H13.2158H13.8085L14.093 9.72649C15.2306 7.64759 16.5338 5.42755 17.7409 3.74497C18.347 2.9001 18.9039 2.22614 19.3816 1.7772C19.6203 1.55287 19.814 1.40883 19.9608 1.32657C20.0389 1.28274 20.0873 1.26564 20.1094 1.25917C20.1343 1.26682 20.1928 1.28836 20.2894 1.34657C20.4443 1.43988 20.6426 1.59467 20.8823 1.82542C21.362 2.28729 21.9182 2.96628 22.5212 3.80755C23.7229 5.48393 25.0206 7.67663 26.1564 9.73042L26.4418 10.2465H27.0315H37.5319Z" fill="white"/>
<path d="M37.5319 10.2465H38.1008L38.3915 9.75752C39.7557 7.46301 41.3314 5.0249 42.7868 3.27118C43.5194 2.38847 44.1802 1.73022 44.7318 1.34504C45.0061 1.15351 45.2131 1.05827 45.3547 1.02007C45.4219 1.00195 45.464 0.999471 45.4856 1.00008C45.5032 1.00058 45.5102 1.00308 45.5121 1.0039C45.7112 1.08673 46.0388 1.33833 46.4727 1.87561C46.8888 2.39101 47.333 3.08068 47.7903 3.90204C48.7039 5.54274 49.6155 7.60872 50.4179 9.61744L50.6692 10.2465H51.3465H60.5631C62.2983 10.2465 63.7049 11.6531 63.7049 13.3882V51.6471C58.9781 52.5195 55.3981 56.6613 55.3981 61.6402C55.3981 66.6191 58.9781 70.7609 63.7049 71.6333V95.8585C63.7049 97.5936 62.2983 99.0003 60.5631 99.0003H4.2897C2.55456 99.0003 1.14795 97.5936 1.14795 95.8585V71.6327C5.87312 70.7589 9.45136 66.618 9.45136 61.6402C9.45136 56.6625 5.87312 52.5215 1.14795 51.6477V13.3882C1.14795 11.6531 2.55456 10.2465 4.2897 10.2465H13.2158H13.8085L14.093 9.72649C15.2306 7.64759 16.5338 5.42755 17.7409 3.74497C18.347 2.9001 18.9039 2.22614 19.3816 1.7772C19.6203 1.55287 19.814 1.40883 19.9608 1.32657C20.0389 1.28274 20.0873 1.26564 20.1094 1.25917C20.1343 1.26682 20.1928 1.28836 20.2894 1.34657C20.4443 1.43988 20.6426 1.59467 20.8823 1.82542C21.362 2.28729 21.9182 2.96628 22.5212 3.80755C23.7229 5.48393 25.0206 7.67663 26.1564 9.73042L26.4418 10.2465H27.0315H37.5319Z" fill="#F683BB" fill-opacity="0.3"/>
<path d="M37.5319 10.2465H38.1008L38.3915 9.75752C39.7557 7.46301 41.3314 5.0249 42.7868 3.27118C43.5194 2.38847 44.1802 1.73022 44.7318 1.34504C45.0061 1.15351 45.2131 1.05827 45.3547 1.02007C45.4219 1.00195 45.464 0.999471 45.4856 1.00008C45.5032 1.00058 45.5102 1.00308 45.5121 1.0039C45.7112 1.08673 46.0388 1.33833 46.4727 1.87561C46.8888 2.39101 47.333 3.08068 47.7903 3.90204C48.7039 5.54274 49.6155 7.60872 50.4179 9.61744L50.6692 10.2465H51.3465H60.5631C62.2983 10.2465 63.7049 11.6531 63.7049 13.3882V51.6471C58.9781 52.5195 55.3981 56.6613 55.3981 61.6402C55.3981 66.6191 58.9781 70.7609 63.7049 71.6333V95.8585C63.7049 97.5936 62.2983 99.0003 60.5631 99.0003H4.2897C2.55456 99.0003 1.14795 97.5936 1.14795 95.8585V71.6327C5.87312 70.7589 9.45136 66.618 9.45136 61.6402C9.45136 56.6625 5.87312 52.5215 1.14795 51.6477V13.3882C1.14795 11.6531 2.55456 10.2465 4.2897 10.2465H13.2158H13.8085L14.093 9.72649C15.2306 7.64759 16.5338 5.42755 17.7409 3.74497C18.347 2.9001 18.9039 2.22614 19.3816 1.7772C19.6203 1.55287 19.814 1.40883 19.9608 1.32657C20.0389 1.28274 20.0873 1.26564 20.1094 1.25917C20.1343 1.26682 20.1928 1.28836 20.2894 1.34657C20.4443 1.43988 20.6426 1.59467 20.8823 1.82542C21.362 2.28729 21.9182 2.96628 22.5212 3.80755C23.7229 5.48393 25.0206 7.67663 26.1564 9.73042L26.4418 10.2465H27.0315H37.5319Z" stroke="#F683BB" stroke-width="2"/>
</svg>
