<svg width="66" height="100" viewBox="0 0 66 100" fill="none" xmlns="http://www.w3.org/2000/svg">
<mask id="path-1-inside-1_8_87263" fill="white">
<path fill-rule="evenodd" clip-rule="evenodd" d="M56.2153 0H57.7356C57.7356 4.25721 60.9907 7.75428 65.1479 8.13775L65.148 60.5171L65.1302 60.5169H65.0352C64.6346 60.5169 64.3047 60.8497 64.2619 61.2776C64.2589 61.3081 64.2572 61.3392 64.2572 61.3706C64.2572 61.843 64.6055 62.2259 65.0352 62.2259H65.1302L65.148 62.2257V91.3285C60.6347 91.3285 56.976 94.9869 56.9755 99.5H53.1744C53.1742 98.2406 52.1532 97.2196 50.8937 97.2196C49.6342 97.2196 48.6132 98.2406 48.613 99.5H47.0925C47.0923 98.2406 46.0713 97.2196 44.8118 97.2196C43.5523 97.2196 42.5313 98.2406 42.5311 99.5H41.0106C41.0104 98.2406 39.9894 97.2196 38.7299 97.2196C37.4704 97.2196 36.4494 98.2406 36.4492 99.5H34.9287C34.9286 98.2406 33.9075 97.2196 32.648 97.2196C31.3885 97.2196 30.3675 98.2406 30.3673 99.5H28.8468C28.8467 98.2406 27.8256 97.2196 26.5661 97.2196C25.3067 97.2196 24.2856 98.2406 24.2854 99.5H22.765C22.7648 98.2406 21.7438 97.2196 20.4843 97.2196C19.2248 97.2196 18.2037 98.2406 18.2036 99.5H16.6831C16.6829 98.2406 15.6619 97.2196 14.4024 97.2196C13.1429 97.2196 12.1219 98.2406 12.1217 99.5H8.32069C8.32017 94.9869 4.66141 91.3285 0.148183 91.3285L0.148046 62.2257L0.165828 62.2259H0.260805C0.690491 62.2259 1.03882 61.843 1.03882 61.3706C1.03882 61.3392 1.03728 61.3081 1.03427 61.2776C0.991463 60.8497 0.661421 60.5169 0.260805 60.5169H0.165828L0.148046 60.5171L0.147949 8.13776C4.30514 7.75435 7.56036 4.25739 7.56036 0.000136375L9.08076 0C9.08076 1.2596 10.1019 2.28133 11.3615 2.28133C12.6211 2.28133 13.6422 1.26022 13.6422 0.000628471L15.1626 0C15.1626 1.2596 16.1837 2.28153 17.4433 2.28153C18.7029 2.28153 19.724 1.26043 19.724 0.000831127L21.2445 0C21.2445 1.2596 22.2656 2.28153 23.5252 2.28153C24.7848 2.28153 25.8059 1.26043 25.8059 0.000831127L27.3264 0C27.3264 1.2596 28.3475 2.28153 29.6071 2.28153C30.8667 2.28153 31.8878 1.26043 31.8878 0.000831127L33.4082 0C33.4082 1.2596 34.4293 2.28153 35.6889 2.28153C36.9485 2.28153 37.9696 1.26043 37.9696 0.000831127L39.4901 0C39.4901 1.2596 40.5112 2.28153 41.7708 2.28153C43.0304 2.28153 44.0515 1.26043 44.0515 0.000831127L45.572 0C45.572 1.2596 46.5931 2.28153 47.8527 2.28153C49.1123 2.28153 50.1334 1.26043 50.1334 0.000831127L51.6539 0C51.6539 1.2596 52.675 2.28153 53.9346 2.28153C55.1942 2.28153 56.2153 1.2596 56.2153 0ZM2.90652 61.2776C2.90351 61.3081 2.90197 61.3392 2.90197 61.3706C2.90197 61.843 3.25029 62.2259 3.67998 62.2259H3.86994C4.29962 62.2259 4.64795 61.843 4.64795 61.3706C4.64795 61.3392 4.64641 61.3081 4.6434 61.2776C4.60059 60.8497 4.27055 60.5169 3.86994 60.5169H3.67998C3.27937 60.5169 2.94932 60.8497 2.90652 61.2776ZM6.51565 61.2776C6.51264 61.3081 6.5111 61.3392 6.5111 61.3706C6.5111 61.843 6.85943 62.2259 7.28911 62.2259H7.47907C7.90875 62.2259 8.25708 61.843 8.25708 61.3706C8.25708 61.3392 8.25554 61.3081 8.25253 61.2776C8.20973 60.8497 7.87968 60.5169 7.47907 60.5169H7.28911C6.8885 60.5169 6.55845 60.8497 6.51565 61.2776ZM10.1248 61.2776C10.1218 61.3081 10.1202 61.3392 10.1202 61.3706C10.1202 61.843 10.4686 62.2259 10.8982 62.2259H11.0882C11.5179 62.2259 11.8662 61.843 11.8662 61.3706C11.8662 61.3392 11.8647 61.3081 11.8617 61.2776C11.8189 60.8497 11.4888 60.5169 11.0882 60.5169H10.8982C10.4976 60.5169 10.1676 60.8497 10.1248 61.2776ZM13.7339 61.2776C13.7309 61.3081 13.7294 61.3392 13.7294 61.3706C13.7294 61.843 14.0777 62.2259 14.5074 62.2259H14.6973C15.127 62.2259 15.4753 61.843 15.4753 61.3706C15.4753 61.3392 15.4738 61.3081 15.4708 61.2776C15.428 60.8497 15.0979 60.5169 14.6973 60.5169H14.5074C14.1068 60.5169 13.7767 60.8497 13.7339 61.2776ZM17.343 61.2776C17.34 61.3081 17.3385 61.3392 17.3385 61.3706C17.3385 61.843 17.6868 62.2259 18.1165 62.2259H18.3065C18.7361 62.2259 19.0845 61.843 19.0845 61.3706C19.0845 61.3392 19.0829 61.3081 19.0799 61.2776C19.0371 60.8497 18.7071 60.5169 18.3065 60.5169H18.1165C17.7159 60.5169 17.3858 60.8497 17.343 61.2776ZM20.9522 61.2776C20.9492 61.3081 20.9476 61.3392 20.9476 61.3706C20.9476 61.843 21.296 62.2259 21.7256 62.2259H21.9156C22.3453 62.2259 22.6936 61.843 22.6936 61.3706C22.6936 61.3392 22.6921 61.3081 22.6891 61.2776C22.6462 60.8497 22.3162 60.5169 21.9156 60.5169H21.7256C21.325 60.5169 20.995 60.8497 20.9522 61.2776ZM24.5613 61.2776C24.5583 61.3081 24.5568 61.3392 24.5568 61.3706C24.5568 61.843 24.9051 62.2259 25.3348 62.2259H25.5247C25.9544 62.2259 26.3027 61.843 26.3027 61.3706C26.3027 61.3392 26.3012 61.3081 26.2982 61.2776C26.2554 60.8497 25.9253 60.5169 25.5247 60.5169H25.3348C24.9342 60.5169 24.6041 60.8497 24.5613 61.2776ZM28.1704 61.2776C28.1674 61.3081 28.1659 61.3392 28.1659 61.3706C28.1659 61.843 28.5142 62.2259 28.9439 62.2259H29.1339C29.5635 62.2259 29.9119 61.843 29.9119 61.3706C29.9119 61.3392 29.9103 61.3081 29.9073 61.2776C29.8645 60.8497 29.5345 60.5169 29.1339 60.5169H28.9439C28.5433 60.5169 28.2132 60.8497 28.1704 61.2776ZM31.7796 61.2776C31.7766 61.3081 31.775 61.3392 31.775 61.3706C31.775 61.843 32.1233 62.2259 32.553 62.2259H32.743C33.1727 62.2259 33.521 61.843 33.521 61.3706C33.521 61.3392 33.5194 61.3081 33.5164 61.2776C33.4736 60.8497 33.1436 60.5169 32.743 60.5169H32.553C32.1524 60.5169 31.8224 60.8497 31.7796 61.2776ZM35.3887 61.2776C35.3857 61.3081 35.3841 61.3392 35.3841 61.3706C35.3841 61.843 35.7325 62.2259 36.1622 62.2259H36.3521C36.7818 62.2259 37.1301 61.843 37.1301 61.3706C37.1301 61.3565 37.1298 61.3424 37.1292 61.3284C37.1284 61.3113 37.1272 61.2944 37.1256 61.2776C37.0828 60.8497 36.7527 60.5169 36.3521 60.5169H36.1622C35.7616 60.5169 35.4315 60.8497 35.3887 61.2776ZM38.9978 61.2776C38.9948 61.3081 38.9933 61.3392 38.9933 61.3706C38.9933 61.843 39.3416 62.2259 39.7713 62.2259H39.9613C40.3909 62.2259 40.7393 61.843 40.7393 61.3706C40.7393 61.3392 40.7377 61.3081 40.7347 61.2776C40.6919 60.8497 40.3619 60.5169 39.9613 60.5169H39.7713C39.3707 60.5169 39.0406 60.8497 38.9978 61.2776ZM42.607 61.2776C42.604 61.3081 42.6024 61.3392 42.6024 61.3706C42.6024 61.843 42.9507 62.2259 43.3804 62.2259H43.5704C44.0001 62.2259 44.3484 61.843 44.3484 61.3706C44.3484 61.3392 44.3468 61.3081 44.3438 61.2776C44.301 60.8497 43.971 60.5169 43.5704 60.5169H43.3804C42.9798 60.5169 42.6498 60.8497 42.607 61.2776ZM46.2161 61.2776C46.2131 61.3081 46.2115 61.3392 46.2115 61.3706C46.2115 61.843 46.5599 62.2259 46.9896 62.2259H47.1795C47.6092 62.2259 47.9575 61.843 47.9575 61.3706C47.9575 61.3392 47.956 61.3081 47.953 61.2776C47.9102 60.8497 47.5801 60.5169 47.1795 60.5169H46.9896C46.5889 60.5169 46.2589 60.8497 46.2161 61.2776ZM49.8252 61.2776C49.8222 61.3081 49.8207 61.3392 49.8207 61.3706C49.8207 61.843 50.169 62.2259 50.5987 62.2259H50.7886C51.2183 62.2259 51.5667 61.843 51.5667 61.3706C51.5667 61.3392 51.5651 61.3081 51.5621 61.2776C51.5193 60.8497 51.1893 60.5169 50.7886 60.5169H50.5987C50.1981 60.5169 49.868 60.8497 49.8252 61.2776ZM53.4344 61.2776C53.4313 61.3081 53.4298 61.3392 53.4298 61.3706C53.4298 61.843 53.7781 62.2259 54.2078 62.2259H54.3978C54.8275 62.2259 55.1758 61.843 55.1758 61.3706C55.1758 61.3392 55.1742 61.3081 55.1712 61.2776C55.1284 60.8497 54.7984 60.5169 54.3978 60.5169H54.2078C53.8072 60.5169 53.4772 60.8497 53.4344 61.2776ZM57.0435 61.2776C57.0405 61.3081 57.0389 61.3392 57.0389 61.3706C57.0389 61.843 57.3873 62.2259 57.8169 62.2259H58.0069C58.4366 62.2259 58.7849 61.843 58.7849 61.3706C58.7849 61.3392 58.7834 61.3081 58.7804 61.2776C58.7376 60.8497 58.4075 60.5169 58.0069 60.5169H57.8169C57.4163 60.5169 57.0863 60.8497 57.0435 61.2776ZM60.6526 61.2776C60.6496 61.3081 60.6481 61.3392 60.6481 61.3706C60.6481 61.843 60.9964 62.2259 61.4261 62.2259H61.616C62.0457 62.2259 62.394 61.843 62.394 61.3706C62.394 61.3392 62.3925 61.3081 62.3895 61.2776C62.3467 60.8497 62.0166 60.5169 61.616 60.5169H61.4261C61.0255 60.5169 60.6954 60.8497 60.6526 61.2776Z"/>
</mask>
<path fill-rule="evenodd" clip-rule="evenodd" d="M56.2153 0H57.7356C57.7356 4.25721 60.9907 7.75428 65.1479 8.13775L65.148 60.5171L65.1302 60.5169H65.0352C64.6346 60.5169 64.3047 60.8497 64.2619 61.2776C64.2589 61.3081 64.2572 61.3392 64.2572 61.3706C64.2572 61.843 64.6055 62.2259 65.0352 62.2259H65.1302L65.148 62.2257V91.3285C60.6347 91.3285 56.976 94.9869 56.9755 99.5H53.1744C53.1742 98.2406 52.1532 97.2196 50.8937 97.2196C49.6342 97.2196 48.6132 98.2406 48.613 99.5H47.0925C47.0923 98.2406 46.0713 97.2196 44.8118 97.2196C43.5523 97.2196 42.5313 98.2406 42.5311 99.5H41.0106C41.0104 98.2406 39.9894 97.2196 38.7299 97.2196C37.4704 97.2196 36.4494 98.2406 36.4492 99.5H34.9287C34.9286 98.2406 33.9075 97.2196 32.648 97.2196C31.3885 97.2196 30.3675 98.2406 30.3673 99.5H28.8468C28.8467 98.2406 27.8256 97.2196 26.5661 97.2196C25.3067 97.2196 24.2856 98.2406 24.2854 99.5H22.765C22.7648 98.2406 21.7438 97.2196 20.4843 97.2196C19.2248 97.2196 18.2037 98.2406 18.2036 99.5H16.6831C16.6829 98.2406 15.6619 97.2196 14.4024 97.2196C13.1429 97.2196 12.1219 98.2406 12.1217 99.5H8.32069C8.32017 94.9869 4.66141 91.3285 0.148183 91.3285L0.148046 62.2257L0.165828 62.2259H0.260805C0.690491 62.2259 1.03882 61.843 1.03882 61.3706C1.03882 61.3392 1.03728 61.3081 1.03427 61.2776C0.991463 60.8497 0.661421 60.5169 0.260805 60.5169H0.165828L0.148046 60.5171L0.147949 8.13776C4.30514 7.75435 7.56036 4.25739 7.56036 0.000136375L9.08076 0C9.08076 1.2596 10.1019 2.28133 11.3615 2.28133C12.6211 2.28133 13.6422 1.26022 13.6422 0.000628471L15.1626 0C15.1626 1.2596 16.1837 2.28153 17.4433 2.28153C18.7029 2.28153 19.724 1.26043 19.724 0.000831127L21.2445 0C21.2445 1.2596 22.2656 2.28153 23.5252 2.28153C24.7848 2.28153 25.8059 1.26043 25.8059 0.000831127L27.3264 0C27.3264 1.2596 28.3475 2.28153 29.6071 2.28153C30.8667 2.28153 31.8878 1.26043 31.8878 0.000831127L33.4082 0C33.4082 1.2596 34.4293 2.28153 35.6889 2.28153C36.9485 2.28153 37.9696 1.26043 37.9696 0.000831127L39.4901 0C39.4901 1.2596 40.5112 2.28153 41.7708 2.28153C43.0304 2.28153 44.0515 1.26043 44.0515 0.000831127L45.572 0C45.572 1.2596 46.5931 2.28153 47.8527 2.28153C49.1123 2.28153 50.1334 1.26043 50.1334 0.000831127L51.6539 0C51.6539 1.2596 52.675 2.28153 53.9346 2.28153C55.1942 2.28153 56.2153 1.2596 56.2153 0ZM2.90652 61.2776C2.90351 61.3081 2.90197 61.3392 2.90197 61.3706C2.90197 61.843 3.25029 62.2259 3.67998 62.2259H3.86994C4.29962 62.2259 4.64795 61.843 4.64795 61.3706C4.64795 61.3392 4.64641 61.3081 4.6434 61.2776C4.60059 60.8497 4.27055 60.5169 3.86994 60.5169H3.67998C3.27937 60.5169 2.94932 60.8497 2.90652 61.2776ZM6.51565 61.2776C6.51264 61.3081 6.5111 61.3392 6.5111 61.3706C6.5111 61.843 6.85943 62.2259 7.28911 62.2259H7.47907C7.90875 62.2259 8.25708 61.843 8.25708 61.3706C8.25708 61.3392 8.25554 61.3081 8.25253 61.2776C8.20973 60.8497 7.87968 60.5169 7.47907 60.5169H7.28911C6.8885 60.5169 6.55845 60.8497 6.51565 61.2776ZM10.1248 61.2776C10.1218 61.3081 10.1202 61.3392 10.1202 61.3706C10.1202 61.843 10.4686 62.2259 10.8982 62.2259H11.0882C11.5179 62.2259 11.8662 61.843 11.8662 61.3706C11.8662 61.3392 11.8647 61.3081 11.8617 61.2776C11.8189 60.8497 11.4888 60.5169 11.0882 60.5169H10.8982C10.4976 60.5169 10.1676 60.8497 10.1248 61.2776ZM13.7339 61.2776C13.7309 61.3081 13.7294 61.3392 13.7294 61.3706C13.7294 61.843 14.0777 62.2259 14.5074 62.2259H14.6973C15.127 62.2259 15.4753 61.843 15.4753 61.3706C15.4753 61.3392 15.4738 61.3081 15.4708 61.2776C15.428 60.8497 15.0979 60.5169 14.6973 60.5169H14.5074C14.1068 60.5169 13.7767 60.8497 13.7339 61.2776ZM17.343 61.2776C17.34 61.3081 17.3385 61.3392 17.3385 61.3706C17.3385 61.843 17.6868 62.2259 18.1165 62.2259H18.3065C18.7361 62.2259 19.0845 61.843 19.0845 61.3706C19.0845 61.3392 19.0829 61.3081 19.0799 61.2776C19.0371 60.8497 18.7071 60.5169 18.3065 60.5169H18.1165C17.7159 60.5169 17.3858 60.8497 17.343 61.2776ZM20.9522 61.2776C20.9492 61.3081 20.9476 61.3392 20.9476 61.3706C20.9476 61.843 21.296 62.2259 21.7256 62.2259H21.9156C22.3453 62.2259 22.6936 61.843 22.6936 61.3706C22.6936 61.3392 22.6921 61.3081 22.6891 61.2776C22.6462 60.8497 22.3162 60.5169 21.9156 60.5169H21.7256C21.325 60.5169 20.995 60.8497 20.9522 61.2776ZM24.5613 61.2776C24.5583 61.3081 24.5568 61.3392 24.5568 61.3706C24.5568 61.843 24.9051 62.2259 25.3348 62.2259H25.5247C25.9544 62.2259 26.3027 61.843 26.3027 61.3706C26.3027 61.3392 26.3012 61.3081 26.2982 61.2776C26.2554 60.8497 25.9253 60.5169 25.5247 60.5169H25.3348C24.9342 60.5169 24.6041 60.8497 24.5613 61.2776ZM28.1704 61.2776C28.1674 61.3081 28.1659 61.3392 28.1659 61.3706C28.1659 61.843 28.5142 62.2259 28.9439 62.2259H29.1339C29.5635 62.2259 29.9119 61.843 29.9119 61.3706C29.9119 61.3392 29.9103 61.3081 29.9073 61.2776C29.8645 60.8497 29.5345 60.5169 29.1339 60.5169H28.9439C28.5433 60.5169 28.2132 60.8497 28.1704 61.2776ZM31.7796 61.2776C31.7766 61.3081 31.775 61.3392 31.775 61.3706C31.775 61.843 32.1233 62.2259 32.553 62.2259H32.743C33.1727 62.2259 33.521 61.843 33.521 61.3706C33.521 61.3392 33.5194 61.3081 33.5164 61.2776C33.4736 60.8497 33.1436 60.5169 32.743 60.5169H32.553C32.1524 60.5169 31.8224 60.8497 31.7796 61.2776ZM35.3887 61.2776C35.3857 61.3081 35.3841 61.3392 35.3841 61.3706C35.3841 61.843 35.7325 62.2259 36.1622 62.2259H36.3521C36.7818 62.2259 37.1301 61.843 37.1301 61.3706C37.1301 61.3565 37.1298 61.3424 37.1292 61.3284C37.1284 61.3113 37.1272 61.2944 37.1256 61.2776C37.0828 60.8497 36.7527 60.5169 36.3521 60.5169H36.1622C35.7616 60.5169 35.4315 60.8497 35.3887 61.2776ZM38.9978 61.2776C38.9948 61.3081 38.9933 61.3392 38.9933 61.3706C38.9933 61.843 39.3416 62.2259 39.7713 62.2259H39.9613C40.3909 62.2259 40.7393 61.843 40.7393 61.3706C40.7393 61.3392 40.7377 61.3081 40.7347 61.2776C40.6919 60.8497 40.3619 60.5169 39.9613 60.5169H39.7713C39.3707 60.5169 39.0406 60.8497 38.9978 61.2776ZM42.607 61.2776C42.604 61.3081 42.6024 61.3392 42.6024 61.3706C42.6024 61.843 42.9507 62.2259 43.3804 62.2259H43.5704C44.0001 62.2259 44.3484 61.843 44.3484 61.3706C44.3484 61.3392 44.3468 61.3081 44.3438 61.2776C44.301 60.8497 43.971 60.5169 43.5704 60.5169H43.3804C42.9798 60.5169 42.6498 60.8497 42.607 61.2776ZM46.2161 61.2776C46.2131 61.3081 46.2115 61.3392 46.2115 61.3706C46.2115 61.843 46.5599 62.2259 46.9896 62.2259H47.1795C47.6092 62.2259 47.9575 61.843 47.9575 61.3706C47.9575 61.3392 47.956 61.3081 47.953 61.2776C47.9102 60.8497 47.5801 60.5169 47.1795 60.5169H46.9896C46.5889 60.5169 46.2589 60.8497 46.2161 61.2776ZM49.8252 61.2776C49.8222 61.3081 49.8207 61.3392 49.8207 61.3706C49.8207 61.843 50.169 62.2259 50.5987 62.2259H50.7886C51.2183 62.2259 51.5667 61.843 51.5667 61.3706C51.5667 61.3392 51.5651 61.3081 51.5621 61.2776C51.5193 60.8497 51.1893 60.5169 50.7886 60.5169H50.5987C50.1981 60.5169 49.868 60.8497 49.8252 61.2776ZM53.4344 61.2776C53.4313 61.3081 53.4298 61.3392 53.4298 61.3706C53.4298 61.843 53.7781 62.2259 54.2078 62.2259H54.3978C54.8275 62.2259 55.1758 61.843 55.1758 61.3706C55.1758 61.3392 55.1742 61.3081 55.1712 61.2776C55.1284 60.8497 54.7984 60.5169 54.3978 60.5169H54.2078C53.8072 60.5169 53.4772 60.8497 53.4344 61.2776ZM57.0435 61.2776C57.0405 61.3081 57.0389 61.3392 57.0389 61.3706C57.0389 61.843 57.3873 62.2259 57.8169 62.2259H58.0069C58.4366 62.2259 58.7849 61.843 58.7849 61.3706C58.7849 61.3392 58.7834 61.3081 58.7804 61.2776C58.7376 60.8497 58.4075 60.5169 58.0069 60.5169H57.8169C57.4163 60.5169 57.0863 60.8497 57.0435 61.2776ZM60.6526 61.2776C60.6496 61.3081 60.6481 61.3392 60.6481 61.3706C60.6481 61.843 60.9964 62.2259 61.4261 62.2259H61.616C62.0457 62.2259 62.394 61.843 62.394 61.3706C62.394 61.3392 62.3925 61.3081 62.3895 61.2776C62.3467 60.8497 62.0166 60.5169 61.616 60.5169H61.4261C61.0255 60.5169 60.6954 60.8497 60.6526 61.2776Z" fill="#E5E5EA" stroke="#C7C7CC" stroke-width="4" mask="url(#path-1-inside-1_8_87263)"/>
</svg>
