<svg width="75" height="75" viewBox="0 0 75 75" fill="none" xmlns="http://www.w3.org/2000/svg">
<rect x="1" y="1" width="73" height="73" rx="7" fill="white"/>
<rect x="1" y="1" width="73" height="73" rx="7" fill="#F683BB" fill-opacity="0.2"/>
<rect x="1" y="1" width="73" height="73" rx="7" stroke="#F683BB" stroke-width="2"/>
<path d="M30.2854 46.544C34.9894 42.032 41.0054 38.192 41.0054 34.448C41.0054 32.048 39.5014 30.352 37.3574 30.352C35.6294 30.352 33.9014 31.568 33.1334 33.296L29.5814 31.696C30.9254 28.656 34.1574 26.544 37.3574 26.544C41.9334 26.544 45.1334 29.808 45.1334 34.448C45.1334 39.312 40.3974 43.152 36.3014 46.544H45.4854V50.128H30.6054L30.2854 46.544Z" fill="#F16AAB"/>
</svg>
