<svg width="75" height="75" viewBox="0 0 75 75" fill="none" xmlns="http://www.w3.org/2000/svg">
<rect x="1" y="1" width="73" height="73" rx="7" fill="#F2F2F7" stroke="#C7C7CC" stroke-width="2"/>
<path d="M41.6626 38.032C43.7746 39.248 45.2146 41.552 45.2146 43.536C45.2146 47.504 41.8226 50.32 37.0226 50.32C32.2226 50.32 28.8306 47.376 28.8306 43.184H32.9586C32.9586 45.232 34.6546 46.672 37.0226 46.672C39.4866 46.672 41.2466 45.232 41.2466 43.184C41.2466 41.168 39.5186 39.728 37.0866 39.728H35.4546V36.368H37.1186C39.3266 36.368 40.8946 35.088 40.8946 33.232C40.8946 31.44 39.3906 30.192 37.2466 30.192C35.1666 30.192 33.6946 31.472 33.6946 33.264H29.5666C29.5666 29.296 32.7346 26.544 37.2466 26.544C41.6946 26.544 44.8306 29.168 44.8306 32.912C44.8306 34.736 43.5826 36.848 41.6626 38.032Z" fill="#AEAEB2"/>
</svg>
