<svg width="66" height="100" viewBox="0 0 66 100" fill="none" xmlns="http://www.w3.org/2000/svg">
<path d="M1.0027 71.256L7.69249 64.6173C7.92003 64.4838 8.11052 64.2948 8.24575 64.0685L8.32727 63.9876L9.04999 63.2705L8.31994 62.5608L8.31347 62.5545L8.30958 62.5507L8.27322 62.5145C8.12772 62.2503 7.90886 62.0343 7.64522 61.8916L1 55.2969V6.19377L6.23422 1H58.7065L64 6.25256V55.3178L56.6933 62.5679L56.6464 62.6144C56.3972 62.0736 55.8485 61.7016 55.2187 61.7016H53.6847C53.3451 61.7016 53.0276 61.8102 52.769 61.9955C52.3753 62.2774 52.1147 62.7422 52.1147 63.2677C52.1147 64.1387 52.8239 64.8338 53.6847 64.8338H55.2187C55.8431 64.8338 56.3879 64.4681 56.64 63.9348L56.6932 63.9876L64.0027 71.2412L64.1452 93.2207L58.8248 98.5H6.41193L1.14519 93.2742L1.0027 71.256ZM31.0707 64.3475L31.0726 64.3495C31.3571 64.6462 31.7613 64.8338 32.2082 64.8338H33.7422C34.603 64.8338 35.3123 64.1387 35.3123 63.2677C35.3123 62.3967 34.603 61.7016 33.7422 61.7016H32.2082C31.3475 61.7016 30.638 62.3965 30.638 63.2677C30.638 63.6858 30.804 64.0678 31.0707 64.3475ZM51.4199 63.2677C51.4199 62.3962 50.7099 61.7016 49.8496 61.7016H48.3156C47.4553 61.7016 46.7454 62.3962 46.7454 63.2677C46.7454 64.1392 47.4553 64.8338 48.3156 64.8338H49.8496C50.7099 64.8338 51.4199 64.1392 51.4199 63.2677ZM46.0506 63.2677C46.0506 62.3967 45.3414 61.7016 44.4806 61.7016H42.9463C42.0855 61.7016 41.3763 62.3967 41.3763 63.2677C41.3763 64.1387 42.0855 64.8338 42.9463 64.8338H44.4806C45.3414 64.8338 46.0506 64.1387 46.0506 63.2677ZM40.6815 63.2677C40.6815 62.8274 40.498 62.4279 40.2057 62.1448C39.9226 61.8702 39.5349 61.7016 39.1113 61.7016H37.5773C36.717 61.7016 36.007 62.3962 36.007 63.2677C36.007 64.1392 36.717 64.8338 37.5773 64.8338H39.1113C39.9716 64.8338 40.6815 64.1392 40.6815 63.2677ZM29.9432 63.2677C29.9432 62.3965 29.2337 61.7016 28.373 61.7016H26.8389C25.9786 61.7016 25.2687 62.3962 25.2687 63.2677C25.2687 64.1392 25.9786 64.8338 26.8389 64.8338H28.373C29.2337 64.8338 29.9432 64.139 29.9432 63.2677ZM24.5741 63.2677C24.5741 62.3962 23.8642 61.7016 23.0039 61.7016H21.4699C20.6091 61.7016 19.8997 62.3965 19.8997 63.2677C19.8997 64.139 20.6091 64.8338 21.4699 64.8338H23.0039C23.8642 64.8338 24.5741 64.1392 24.5741 63.2677ZM19.2049 63.2677C19.2049 62.3965 18.4954 61.7016 17.6346 61.7016H16.1006C15.2398 61.7016 14.5306 62.3967 14.5306 63.2677C14.5306 64.1387 15.2398 64.8338 16.1006 64.8338H17.6346C18.4954 64.8338 19.2049 64.139 19.2049 63.2677ZM13.8358 63.2677C13.8358 62.3962 13.1259 61.7016 12.2656 61.7016H10.7316C9.87124 61.7016 9.16133 62.3962 9.16133 63.2677C9.16133 64.1392 9.87124 64.8338 10.7316 64.8338H12.2656C13.1259 64.8338 13.8358 64.1392 13.8358 63.2677Z" fill="#E5E5EA" stroke="#C7C7CC" stroke-width="2"/>
</svg>
