<svg width="34" height="34" viewBox="0 0 34 34" fill="none" xmlns="http://www.w3.org/2000/svg">
<g id="zondicons:add-solid" clip-path="url(#clip0_8_91251)">
<path id="Vector" d="M18.7 15.3V8.5H15.3V15.3H8.5V18.7H15.3V25.5H18.7V18.7H25.5V15.3H18.7ZM17 34C12.4913 34 8.1673 32.2089 4.97918 29.0208C1.79107 25.8327 0 21.5087 0 17C0 12.4913 1.79107 8.1673 4.97918 4.97918C8.1673 1.79107 12.4913 0 17 0C21.5087 0 25.8327 1.79107 29.0208 4.97918C32.2089 8.1673 34 12.4913 34 17C34 21.5087 32.2089 25.8327 29.0208 29.0208C25.8327 32.2089 21.5087 34 17 34Z" fill="#C7C7CC"/>
</g>
<defs>
<clipPath id="clip0_8_91251">
<rect width="34" height="34" fill="white"/>
</clipPath>
</defs>
</svg>
