<svg width="50" height="50" viewBox="0 0 50 50" fill="none" xmlns="http://www.w3.org/2000/svg">
<path d="M31.6638 36.0371C30.3716 37.3036 28.9606 37.1036 27.6024 36.5037C26.1651 35.8904 24.8464 35.8638 23.33 36.5037C21.4311 37.3303 20.429 37.0903 19.2949 36.0371C12.8599 29.3313 13.8094 19.1192 21.1147 18.7459C22.8948 18.8393 24.1344 19.7325 25.1761 19.8125C26.7321 19.4925 28.2222 18.5726 29.8837 18.6926C31.8748 18.8526 33.3781 19.6525 34.3671 21.0923C30.2529 23.5853 31.2287 29.0646 35 30.5978C34.2484 32.5975 33.2726 34.5839 31.6506 36.0504L31.6638 36.0371ZM25.0442 18.666C24.8464 15.693 27.2332 13.24 29.976 13C30.3584 16.4396 26.8903 18.9992 25.0442 18.666Z" fill="white"/>
</svg>
