<svg width="60" height="60" viewBox="0 0 60 60" fill="none" xmlns="http://www.w3.org/2000/svg">
<path d="M50.625 15.2344H42.6562L40.7578 9.91406C40.6267 9.55001 40.3863 9.23532 40.0696 9.01299C39.7529 8.79066 39.3752 8.67153 38.9883 8.67188H21.0117C20.2207 8.67188 19.5117 9.16992 19.248 9.91406L17.3438 15.2344H9.375C6.78516 15.2344 4.6875 17.332 4.6875 19.9219V46.6406C4.6875 49.2305 6.78516 51.3281 9.375 51.3281H50.625C53.2148 51.3281 55.3125 49.2305 55.3125 46.6406V19.9219C55.3125 17.332 53.2148 15.2344 50.625 15.2344ZM30 41.9531C24.8203 41.9531 20.625 37.7578 20.625 32.5781C20.625 27.3984 24.8203 23.2031 30 23.2031C35.1797 23.2031 39.375 27.3984 39.375 32.5781C39.375 37.7578 35.1797 41.9531 30 41.9531ZM24.375 32.5781C24.375 34.07 24.9676 35.5007 26.0225 36.5556C27.0774 37.6105 28.5082 38.2031 30 38.2031C31.4918 38.2031 32.9226 37.6105 33.9775 36.5556C35.0324 35.5007 35.625 34.07 35.625 32.5781C35.625 31.0863 35.0324 29.6555 33.9775 28.6006C32.9226 27.5458 31.4918 26.9531 30 26.9531C28.5082 26.9531 27.0774 27.5458 26.0225 28.6006C24.9676 29.6555 24.375 31.0863 24.375 32.5781Z" fill="url(#paint0_linear_138_25939)"/>
<defs>
<linearGradient id="paint0_linear_138_25939" x1="31.8761" y1="20.2296" x2="50.1716" y2="57.1351" gradientUnits="userSpaceOnUse">
<stop stop-color="#F683BB"/>
<stop offset="1" stop-color="#FE6565"/>
</linearGradient>
</defs>
</svg>
