<svg width="32" height="32" viewBox="0 0 32 32" fill="none" xmlns="http://www.w3.org/2000/svg">
<circle cx="16" cy="16" r="15.5" fill="white" stroke="#E5E5EA"/>
<path d="M22.4167 11.1874H19.9375L19.3469 9.53221C19.3061 9.41895 19.2313 9.32105 19.1328 9.25188C19.0342 9.18271 18.9167 9.14565 18.7964 9.14575H13.2036C12.9576 9.14575 12.737 9.3007 12.6549 9.53221L12.0625 11.1874H9.58333C8.7776 11.1874 8.125 11.84 8.125 12.6458V20.9583C8.125 21.764 8.7776 22.4166 9.58333 22.4166H22.4167C23.2224 22.4166 23.875 21.764 23.875 20.9583V12.6458C23.875 11.84 23.2224 11.1874 22.4167 11.1874ZM22.5625 20.9583C22.5625 21.0385 22.4969 21.1041 22.4167 21.1041H9.58333C9.50312 21.1041 9.4375 21.0385 9.4375 20.9583V12.6458C9.4375 12.5655 9.50312 12.4999 9.58333 12.4999H12.9867L13.2984 11.6286L13.7159 10.4583H18.2823L18.6997 11.6286L19.0115 12.4999H22.4167C22.4969 12.4999 22.5625 12.5655 22.5625 12.6458V20.9583ZM16 13.6666C14.3885 13.6666 13.0833 14.9718 13.0833 16.5833C13.0833 18.1947 14.3885 19.4999 16 19.4999C17.6115 19.4999 18.9167 18.1947 18.9167 16.5833C18.9167 14.9718 17.6115 13.6666 16 13.6666ZM16 18.3333C15.0339 18.3333 14.25 17.5494 14.25 16.5833C14.25 15.6171 15.0339 14.8333 16 14.8333C16.9661 14.8333 17.75 15.6171 17.75 16.5833C17.75 17.5494 16.9661 18.3333 16 18.3333Z" fill="#8E8E93"/>
</svg>
