<svg width="14" height="20" viewBox="0 0 14 20" fill="none" xmlns="http://www.w3.org/2000/svg">
<path fill-rule="evenodd" clip-rule="evenodd" d="M11.6667 14.4444C12.2855 14.4444 12.879 14.6786 13.3166 15.0953C13.7542 15.5121 14 16.0773 14 16.6667V17.7778C14 18.3671 13.7542 18.9324 13.3166 19.3491C12.879 19.7659 12.2855 20 11.6667 20H2.33333C1.71449 20 1.121 19.7659 0.683417 19.3491C0.245833 18.9324 0 18.3671 0 17.7778V16.6667C0 16.0773 0.245833 15.5121 0.683417 15.0953C1.121 14.6786 1.71449 14.4444 2.33333 14.4444H11.6667ZM11.6667 0C12.2855 0 12.879 0.234126 13.3166 0.650874C13.7542 1.06762 14 1.63285 14 2.22222V10C14 10.5894 13.7542 11.1546 13.3166 11.5713C12.879 11.9881 12.2855 12.2222 11.6667 12.2222H2.33333C1.71449 12.2222 1.121 11.9881 0.683417 11.5713C0.245833 11.1546 0 10.5894 0 10V2.22222C0 1.63285 0.245833 1.06762 0.683417 0.650874C1.121 0.234126 1.71449 0 2.33333 0H11.6667Z" fill="#212121"/>
</svg>
