<svg width="24" height="24" viewBox="0 0 24 24" fill="none" xmlns="http://www.w3.org/2000/svg">
<g id="icon-park-outline:doc-detail">
<path id="Vector (Stroke)" fill-rule="evenodd" clip-rule="evenodd" d="M4.15647 1.65611C4.51279 1.29979 4.99606 1.09961 5.49998 1.09961H19.5C20.0039 1.09961 20.4872 1.29979 20.8435 1.65611C21.1998 2.01243 21.4 2.4957 21.4 2.99961V20.9996C21.4 21.5035 21.1998 21.9868 20.8435 22.3431C20.4872 22.6994 20.0039 22.8996 19.5 22.8996H5.49998C4.99607 22.8996 4.51279 22.6994 4.15647 22.3431C3.80015 21.9868 3.59998 21.5035 3.59998 20.9996V2.99961C3.59998 2.4957 3.80015 2.01243 4.15647 1.65611ZM5.49998 2.89961C5.47345 2.89961 5.44802 2.91014 5.42927 2.9289C5.41051 2.94765 5.39998 2.97309 5.39998 2.99961V20.9996C5.39998 21.0261 5.41051 21.0516 5.42927 21.0703C5.44802 21.0891 5.47345 21.0996 5.49998 21.0996H19.5C19.5265 21.0996 19.5519 21.0891 19.5707 21.0703C19.5894 21.0516 19.6 21.0261 19.6 20.9996V2.99961C19.6 2.97309 19.5894 2.94765 19.5707 2.9289C19.5519 2.91015 19.5265 2.89961 19.5 2.89961H5.49998ZM7.59998 5.99961C7.59998 5.50255 8.00292 5.09961 8.49998 5.09961H15.5C15.997 5.09961 16.4 5.50255 16.4 5.99961V10.9996C16.4 11.4967 15.997 11.8996 15.5 11.8996H8.49998C8.00292 11.8996 7.59998 11.4967 7.59998 10.9996V5.99961ZM9.39998 6.89961V10.0996H14.6V6.89961H9.39998ZM7.59998 14.9996C7.59998 14.5026 8.00292 14.0996 8.49998 14.0996H15.5C15.997 14.0996 16.4 14.5026 16.4 14.9996C16.4 15.4967 15.997 15.8996 15.5 15.8996H8.49998C8.00292 15.8996 7.59998 15.4967 7.59998 14.9996ZM7.59998 17.9996C7.59998 17.5026 8.00292 17.0996 8.49998 17.0996H12C12.497 17.0996 12.9 17.5026 12.9 17.9996C12.9 18.4967 12.497 18.8996 12 18.8996H8.49998C8.00292 18.8996 7.59998 18.4967 7.59998 17.9996Z" fill="#98989D"/>
</g>
</svg>
