<svg width="16" height="16" viewBox="0 0 16 16" fill="none" xmlns="http://www.w3.org/2000/svg">
<g id="bx:edit">
<path id="Vector" d="M4.66669 11.3423L7.60869 11.3323L14.03 4.97226C14.282 4.72026 14.4207 4.38559 14.4207 4.02959C14.4207 3.67359 14.282 3.33893 14.03 3.08693L12.9727 2.02959C12.4687 1.52559 11.5894 1.52826 11.0894 2.02759L4.66669 8.38893V11.3423ZM12.03 2.97226L13.0894 4.02759L12.0247 5.08226L10.9674 4.02559L12.03 2.97226ZM6.00002 8.94493L10.02 4.96293L11.0774 6.02026L7.05802 10.0009L6.00002 10.0043V8.94493Z" fill="#8E8E93"/>
<path id="Vector_2" d="M3.33333 14H12.6667C13.402 14 14 13.402 14 12.6667V6.888L12.6667 8.22133V12.6667H5.43867C5.42133 12.6667 5.40333 12.6733 5.386 12.6733C5.364 12.6733 5.342 12.6673 5.31933 12.6667H3.33333V3.33333H7.898L9.23133 2H3.33333C2.598 2 2 2.598 2 3.33333V12.6667C2 13.402 2.598 14 3.33333 14Z" fill="#8E8E93"/>
</g>
</svg>
