<svg width="24" height="24" viewBox="0 0 24 24" fill="none" xmlns="http://www.w3.org/2000/svg">
<g id="currency_exchange">
<mask id="mask0_8_85856" style="mask-type:alpha" maskUnits="userSpaceOnUse" x="0" y="0" width="24" height="24">
<rect id="Bounding box" width="24" height="24" fill="#D9D9D9"/>
</mask>
<g mask="url(#mask0_8_85856)">
<path id="currency_exchange_2" d="M12 22C10.303 22 8.74242 21.6136 7.31818 20.8409C5.89394 20.0682 4.72727 19.0379 3.81818 17.75V19.2727C3.81818 19.7748 3.41117 20.1818 2.90909 20.1818C2.40701 20.1818 2 19.7748 2 19.2727V15.7273C2 15.175 2.44772 14.7273 3 14.7273H6.54545C7.04753 14.7273 7.45455 15.1343 7.45455 15.6364C7.45455 16.1384 7.04753 16.5455 6.54545 16.5455H5.20455C5.93182 17.6364 6.89015 18.5152 8.07955 19.1818C9.26894 19.8485 10.5758 20.1818 12 20.1818C13.1364 20.1818 14.2008 19.9659 15.1932 19.5341C16.1856 19.1023 17.0492 18.5189 17.7841 17.7841C18.5189 17.0492 19.1023 16.1856 19.5341 15.1932C19.849 14.4695 20.049 13.7076 20.1343 12.9075C20.1875 12.4082 20.5888 12 21.0909 12C21.593 12 22.0045 12.4078 21.9612 12.908C21.8707 13.9512 21.6223 14.944 21.2159 15.8864C20.6932 17.0985 19.9773 18.1591 19.0682 19.0682C18.1591 19.9773 17.0985 20.6932 15.8864 21.2159C14.6742 21.7386 13.3788 22 12 22ZM2.90909 12C2.40701 12 1.99546 11.5922 2.03882 11.092C2.12925 10.0488 2.37768 9.05605 2.78409 8.11364C3.30682 6.90152 4.02273 5.84091 4.93182 4.93182C5.84091 4.02273 6.90152 3.30682 8.11364 2.78409C9.32576 2.26136 10.6212 2 12 2C13.697 2 15.2576 2.38636 16.6818 3.15909C18.1061 3.93182 19.2727 4.96212 20.1818 6.25V4.72727C20.1818 4.2252 20.5888 3.81818 21.0909 3.81818C21.593 3.81818 22 4.2252 22 4.72727V8.27273C22 8.82501 21.5523 9.27273 21 9.27273H17.4545C16.9525 9.27273 16.5455 8.86571 16.5455 8.36364C16.5455 7.86156 16.9525 7.45455 17.4545 7.45455H18.7955C18.0682 6.36364 17.1098 5.48485 15.9205 4.81818C14.7311 4.15152 13.4242 3.81818 12 3.81818C10.8636 3.81818 9.79924 4.03409 8.80682 4.46591C7.81439 4.89773 6.95076 5.48106 6.21591 6.21591C5.48106 6.95076 4.89773 7.81439 4.46591 8.80682C4.15104 9.53046 3.95097 10.2924 3.86569 11.0925C3.81249 11.5918 3.41117 12 2.90909 12Z" fill="#98989D"/>
</g>
</g>
</svg>
