<svg width="24" height="24" viewBox="0 0 24 24" fill="none" xmlns="http://www.w3.org/2000/svg">
<g id="mi:filter">
<path id="Vector" d="M7.99994 5.00245C7.73472 5.00245 7.48037 5.10781 7.29283 5.29534C7.1053 5.48288 6.99994 5.73723 6.99994 6.00245C6.99994 6.26767 7.1053 6.52202 7.29283 6.70956C7.48037 6.89709 7.73472 7.00245 7.99994 7.00245C8.26516 7.00245 8.51951 6.89709 8.70705 6.70956C8.89458 6.52202 8.99994 6.26767 8.99994 6.00245C8.99994 5.73723 8.89458 5.48288 8.70705 5.29534C8.51951 5.10781 8.26516 5.00245 7.99994 5.00245ZM5.16994 5.00245C5.37654 4.41692 5.75968 3.90988 6.26654 3.55124C6.7734 3.1926 7.37902 3 7.99994 3C8.62085 3 9.22648 3.1926 9.73334 3.55124C10.2402 3.90988 10.6233 4.41692 10.8299 5.00245L20 5.00295C20.2653 5.00295 20.5196 5.10831 20.7071 5.29584C20.8947 5.48338 21 5.73773 21 6.00295C21 6.26816 20.8947 6.52252 20.7071 6.71005C20.5196 6.89759 20.2653 7.00295 20 7.00295L10.8299 7.00245C10.6233 7.58798 10.2402 8.09502 9.73334 8.45366C9.22648 8.81231 8.62085 9.0049 7.99994 9.0049C7.37902 9.0049 6.7734 8.81231 6.26654 8.45366C5.75968 8.09502 5.37654 7.58798 5.16994 7.00245H3.99994C3.73472 7.00245 3.48037 6.89709 3.29283 6.70956C3.1053 6.52202 2.99994 6.26767 2.99994 6.00245C2.99994 5.73723 3.1053 5.48288 3.29283 5.29534C3.48037 5.10781 3.73472 5.00245 3.99994 5.00245H5.16994ZM16 11.0029C15.7348 11.0029 15.4805 11.1083 15.2929 11.2958C15.1054 11.4834 15 11.7377 15 12.0029C15 12.2682 15.1054 12.5225 15.2929 12.7101C15.4805 12.8976 15.7348 13.0029 16 13.0029C16.2652 13.0029 16.5196 12.8976 16.7071 12.7101C16.8947 12.5225 17 12.2682 17 12.0029C17 11.7377 16.8947 11.4834 16.7071 11.2958C16.5196 11.1083 16.2652 11.0029 16 11.0029ZM13.17 11.0029C13.3766 10.4174 13.7598 9.91038 14.2666 9.55174C14.7735 9.19309 15.3791 9.0005 16 9.0005C16.6209 9.0005 17.2266 9.19309 17.7334 9.55174C18.2403 9.91038 18.6234 10.4174 18.83 11.0029H20C20.2653 11.0029 20.5196 11.1083 20.7071 11.2958C20.8947 11.4834 21 11.7377 21 12.0029C21 12.2682 20.8947 12.5225 20.7071 12.7101C20.5196 12.8976 20.2653 13.0029 20 13.0029H18.83C18.6234 13.5885 18.2403 14.0955 17.7334 14.4542C17.2266 14.8128 16.6209 15.0054 16 15.0054C15.3791 15.0054 14.7735 14.8128 14.2666 14.4542C13.7598 14.0955 13.3766 13.5885 13.17 13.0029L3.99994 13.0025C3.73472 13.0025 3.48037 12.8971 3.29283 12.7096C3.1053 12.522 2.99994 12.2677 2.99994 12.0025C2.99994 11.7372 3.1053 11.4829 3.29283 11.2953C3.48037 11.1078 3.73472 11.0025 3.99994 11.0025L13.17 11.0029ZM7.99994 17.0025C7.73472 17.0025 7.48037 17.1078 7.29283 17.2953C7.1053 17.4829 6.99994 17.7372 6.99994 18.0025C6.99994 18.2677 7.1053 18.522 7.29283 18.7096C7.48037 18.8971 7.73472 19.0025 7.99994 19.0025C8.26516 19.0025 8.51951 18.8971 8.70705 18.7096C8.89458 18.522 8.99994 18.2677 8.99994 18.0025C8.99994 17.7372 8.89458 17.4829 8.70705 17.2953C8.51951 17.1078 8.26516 17.0025 7.99994 17.0025ZM5.16994 17.0025C5.37654 16.4169 5.75968 15.9099 6.26654 15.5512C6.7734 15.1926 7.37902 15 7.99994 15C8.62085 15 9.22648 15.1926 9.73334 15.5512C10.2402 15.9099 10.6233 16.4169 10.8299 17.0025L20 17.0029C20.2653 17.0029 20.5196 17.1083 20.7071 17.2958C20.8947 17.4834 21 17.7377 21 18.0029C21 18.2682 20.8947 18.5225 20.7071 18.7101C20.5196 18.8976 20.2653 19.0029 20 19.0029L10.8299 19.0025C10.6233 19.588 10.2402 20.095 9.73334 20.4537C9.22648 20.8123 8.62085 21.0049 7.99994 21.0049C7.37902 21.0049 6.7734 20.8123 6.26654 20.4537C5.75968 20.095 5.37654 19.588 5.16994 19.0025H3.99994C3.73472 19.0025 3.48037 18.8971 3.29283 18.7096C3.1053 18.522 2.99994 18.2677 2.99994 18.0025C2.99994 17.7372 3.1053 17.4829 3.29283 17.2953C3.48037 17.1078 3.73472 17.0025 3.99994 17.0025H5.16994Z" fill="#212121"/>
</g>
</svg>
