<svg width="40" height="40" viewBox="0 0 40 40" fill="none" xmlns="http://www.w3.org/2000/svg">
<g clip-path="url(#clip0_482_3500)">
<path d="M20.9821 12.8571V3.21423H7.5V36.7857H32.5V14.7321H22.8571C22.3599 14.7321 21.8829 14.5345 21.5313 14.1829C21.1797 13.8313 20.9821 13.3544 20.9821 12.8571ZM15 15.0892C15.9866 15.0892 16.7857 15.8883 16.7857 16.8749C16.7857 17.8616 15.9866 18.6607 15 18.6607C14.0134 18.6607 13.2143 17.8616 13.2143 16.8749C13.2143 15.8883 14.0134 15.0892 15 15.0892ZM28.2143 28.2142H11.7902C11.4911 28.2142 11.3259 27.8705 11.5089 27.6383L15.9643 21.9598C15.9977 21.9171 16.0404 21.8826 16.0891 21.8588C16.1378 21.8351 16.1913 21.8227 16.2455 21.8227C16.2997 21.8227 16.3532 21.8351 16.402 21.8588C16.4507 21.8826 16.4934 21.9171 16.5268 21.9598L18.3616 24.2991L21.8348 19.8705C21.8687 19.8277 21.9118 19.7932 21.9609 19.7694C22.0099 19.7457 22.0638 19.7334 22.1183 19.7334C22.1728 19.7334 22.2267 19.7457 22.2758 19.7694C22.3248 19.7932 22.3679 19.8277 22.4018 19.8705L28.4955 27.6383C28.6786 27.8705 28.5134 28.2142 28.2143 28.2142Z" fill="white"/>
<path d="M20.9821 12.8571V3.21423H7.5V36.7857H32.5V14.7321H22.8571C22.3599 14.7321 21.8829 14.5345 21.5313 14.1829C21.1797 13.8313 20.9821 13.3544 20.9821 12.8571ZM15 15.0892C15.9866 15.0892 16.7857 15.8883 16.7857 16.8749C16.7857 17.8616 15.9866 18.6607 15 18.6607C14.0134 18.6607 13.2143 17.8616 13.2143 16.8749C13.2143 15.8883 14.0134 15.0892 15 15.0892ZM28.2143 28.2142H11.7902C11.4911 28.2142 11.3259 27.8705 11.5089 27.6383L15.9643 21.9598C15.9977 21.9171 16.0404 21.8826 16.0891 21.8588C16.1378 21.8351 16.1913 21.8227 16.2455 21.8227C16.2997 21.8227 16.3532 21.8351 16.402 21.8588C16.4507 21.8826 16.4934 21.9171 16.5268 21.9598L18.3616 24.2991L21.8348 19.8705C21.8687 19.8277 21.9118 19.7932 21.9609 19.7694C22.0099 19.7457 22.0638 19.7334 22.1183 19.7334C22.1728 19.7334 22.2267 19.7457 22.2758 19.7694C22.3248 19.7932 22.3679 19.8277 22.4018 19.8705L28.4955 27.6383C28.6786 27.8705 28.5134 28.2142 28.2143 28.2142Z" fill="#F16AAB" fill-opacity="0.2"/>
<path d="M32.4194 11.6965L24.0176 3.29468V11.6965H32.4194Z" fill="white"/>
<path d="M32.4194 11.6965L24.0176 3.29468V11.6965H32.4194Z" fill="#F16AAB" fill-opacity="0.5"/>
<path d="M35.2946 10.0268L25.6874 0.419643C25.4196 0.151786 25.058 0 24.6785 0H5.71422C4.92404 0 4.28564 0.638393 4.28564 1.42857V38.5714C4.28564 39.3616 4.92404 40 5.71422 40H34.2856C35.0758 40 35.7142 39.3616 35.7142 38.5714V11.0402C35.7142 10.6607 35.5624 10.2946 35.2946 10.0268ZM24.0178 3.29464L32.4196 11.6964H24.0178V3.29464ZM32.4999 36.7857H7.49993V3.21429H20.9821V12.8571C20.9821 13.3544 21.1796 13.8313 21.5312 14.183C21.8829 14.5346 22.3598 14.7321 22.8571 14.7321H32.4999V36.7857Z" fill="#F683BB"/>
<path d="M21.8348 19.8705L18.3616 24.2991L16.5267 21.9598C16.4933 21.9171 16.4506 21.8826 16.4019 21.8588C16.3532 21.8351 16.2997 21.8227 16.2455 21.8227C16.1913 21.8227 16.1378 21.8351 16.0891 21.8588C16.0403 21.8826 15.9976 21.9171 15.9642 21.9598L11.5089 27.6383C11.4677 27.691 11.4421 27.7542 11.4351 27.8206C11.4281 27.8871 11.4399 27.9542 11.4692 28.0143C11.4986 28.0744 11.5442 28.125 11.601 28.1604C11.6577 28.1957 11.7233 28.2144 11.7901 28.2142H28.2142C28.5133 28.2142 28.6785 27.8705 28.4955 27.6383L22.4017 19.8705C22.3679 19.8277 22.3248 19.7932 22.2757 19.7694C22.2266 19.7457 22.1728 19.7334 22.1182 19.7334C22.0637 19.7334 22.0099 19.7457 21.9608 19.7694C21.9117 19.7932 21.8686 19.8277 21.8348 19.8705ZM13.2142 16.8749C13.2142 17.3485 13.4024 17.8028 13.7373 18.1376C14.0721 18.4725 14.5263 18.6607 14.9999 18.6607C15.4735 18.6607 15.9277 18.4725 16.2626 18.1376C16.5975 17.8028 16.7857 17.3485 16.7857 16.8749C16.7857 16.4013 16.5975 15.9471 16.2626 15.6123C15.9277 15.2774 15.4735 15.0892 14.9999 15.0892C14.5263 15.0892 14.0721 15.2774 13.7373 15.6123C13.4024 15.9471 13.2142 16.4013 13.2142 16.8749Z" fill="url(#paint0_linear_482_3500)"/>
</g>
<defs>
<linearGradient id="paint0_linear_482_3500" x1="20.6378" y1="18.6454" x2="25.9359" y2="30.4046" gradientUnits="userSpaceOnUse">
<stop stop-color="#F683BB"/>
<stop offset="1" stop-color="#FE6565"/>
</linearGradient>
<clipPath id="clip0_482_3500">
<rect width="40" height="40" fill="white"/>
</clipPath>
</defs>
</svg>
