<svg width="20" height="20" viewBox="0 0 20 20" fill="none" xmlns="http://www.w3.org/2000/svg">
<path fill-rule="evenodd" clip-rule="evenodd" d="M6.66667 11.1111C7.25604 11.1111 7.82127 11.3452 8.23802 11.762C8.65476 12.1787 8.88889 12.744 8.88889 13.3333V17.7778C8.88889 18.3671 8.65476 18.9324 8.23802 19.3491C7.82127 19.7659 7.25604 20 6.66667 20H2.22222C1.63285 20 1.06762 19.7659 0.650874 19.3491C0.234126 18.9324 0 18.3671 0 17.7778V13.3333C0 12.744 0.234126 12.1787 0.650874 11.762C1.06762 11.3452 1.63285 11.1111 2.22222 11.1111H6.66667ZM17.7778 11.1111C18.3671 11.1111 18.9324 11.3452 19.3491 11.762C19.7659 12.1787 20 12.744 20 13.3333V17.7778C20 18.3671 19.7659 18.9324 19.3491 19.3491C18.9324 19.7659 18.3671 20 17.7778 20H13.3333C12.744 20 12.1787 19.7659 11.762 19.3491C11.3452 18.9324 11.1111 18.3671 11.1111 17.7778V13.3333C11.1111 12.744 11.3452 12.1787 11.762 11.762C12.1787 11.3452 12.744 11.1111 13.3333 11.1111H17.7778ZM6.66667 0C7.25604 0 7.82127 0.234126 8.23802 0.650874C8.65476 1.06762 8.88889 1.63285 8.88889 2.22222V6.66667C8.88889 7.25604 8.65476 7.82127 8.23802 8.23802C7.82127 8.65476 7.25604 8.88889 6.66667 8.88889H2.22222C1.63285 8.88889 1.06762 8.65476 0.650874 8.23802C0.234126 7.82127 0 7.25604 0 6.66667V2.22222C0 1.63285 0.234126 1.06762 0.650874 0.650874C1.06762 0.234126 1.63285 0 2.22222 0H6.66667ZM17.7778 0C18.3671 0 18.9324 0.234126 19.3491 0.650874C19.7659 1.06762 20 1.63285 20 2.22222V6.66667C20 7.25604 19.7659 7.82127 19.3491 8.23802C18.9324 8.65476 18.3671 8.88889 17.7778 8.88889H13.3333C12.744 8.88889 12.1787 8.65476 11.762 8.23802C11.3452 7.82127 11.1111 7.25604 11.1111 6.66667V2.22222C11.1111 1.63285 11.3452 1.06762 11.762 0.650874C12.1787 0.234126 12.744 0 13.3333 0H17.7778Z" fill="#212121"/>
</svg>
