<svg width="24" height="25" viewBox="0 0 24 25" fill="none" xmlns="http://www.w3.org/2000/svg">
<path d="M22.5 8.94238C22.5 15.5049 12.7697 20.8168 12.3553 21.0361C12.2461 21.0949 12.124 21.1256 12 21.1256C11.876 21.1256 11.7539 21.0949 11.6447 21.0361C11.2303 20.8168 1.5 15.5049 1.5 8.94238C1.50174 7.40134 2.11468 5.92392 3.20436 4.83424C4.29404 3.74456 5.77146 3.13162 7.3125 3.12988C9.24844 3.12988 10.9434 3.96238 12 5.36957C13.0566 3.96238 14.7516 3.12988 16.6875 3.12988C18.2285 3.13162 19.706 3.74456 20.7956 4.83424C21.8853 5.92392 22.4983 7.40134 22.5 8.94238Z" fill="#F683BB"/>
</svg>
