<svg width="24" height="25" viewBox="0 0 24 25" fill="none" xmlns="http://www.w3.org/2000/svg">
<path d="M16.6875 2.75488C14.8041 2.75488 13.1325 3.49832 12 4.77613C10.8675 3.49832 9.19594 2.75488 7.3125 2.75488C5.67208 2.75687 4.09942 3.4094 2.93947 4.56935C1.77952 5.7293 1.12698 7.30196 1.125 8.94238C1.125 15.7243 11.0447 21.143 11.4666 21.3708C11.6305 21.4591 11.8138 21.5053 12 21.5053C12.1862 21.5053 12.3695 21.4591 12.5334 21.3708C12.9553 21.143 22.875 15.7243 22.875 8.94238C22.873 7.30196 22.2205 5.7293 21.0605 4.56935C19.9006 3.4094 18.3279 2.75687 16.6875 2.75488ZM16.1728 16.1011C14.8671 17.2091 13.4714 18.2063 12 19.0824C10.5286 18.2063 9.13287 17.2091 7.82719 16.1011C5.79562 14.3583 3.375 11.7005 3.375 8.94238C3.375 7.89809 3.78984 6.89657 4.52827 6.15815C5.26669 5.41972 6.26821 5.00488 7.3125 5.00488C8.98125 5.00488 10.3781 5.88613 10.9584 7.30551C11.0429 7.51242 11.1871 7.68949 11.3726 7.81413C11.5581 7.93877 11.7765 8.00533 12 8.00533C12.2235 8.00533 12.4419 7.93877 12.6274 7.81413C12.8129 7.68949 12.9571 7.51242 13.0416 7.30551C13.6219 5.88613 15.0188 5.00488 16.6875 5.00488C17.7318 5.00488 18.7333 5.41972 19.4717 6.15815C20.2102 6.89657 20.625 7.89809 20.625 8.94238C20.625 11.7005 18.2044 14.3583 16.1728 16.1011Z" fill="#F16AAB"/>
</svg>
