<svg width="25" height="24" viewBox="0 0 25 24" fill="none" xmlns="http://www.w3.org/2000/svg">
<path d="M22.8503 11.8358L13.1964 2.18895C13.1268 2.1193 13.0443 2.06404 12.9534 2.02634C12.8625 1.98864 12.7651 1.96924 12.6667 1.96924C12.5683 1.96924 12.4708 1.98864 12.3799 2.02634C12.2891 2.06404 12.2065 2.1193 12.137 2.18895L2.48307 11.8358C2.20182 12.1171 2.04245 12.4991 2.04245 12.8975C2.04245 13.7249 2.71511 14.3975 3.54245 14.3975H4.55964V21.2811C4.55964 21.696 4.89479 22.0311 5.30964 22.0311H11.1667V16.7811H13.7917V22.0311H20.0237C20.4385 22.0311 20.7737 21.696 20.7737 21.2811V14.3975H21.7909C22.1893 14.3975 22.5714 14.2405 22.8526 13.9569C23.4362 13.371 23.4362 12.4218 22.8503 11.8358Z" fill="#F683BB"/>
</svg>
