<svg width="25" height="24" viewBox="0 0 25 24" fill="none" xmlns="http://www.w3.org/2000/svg">
<g id="ant-design:home-filled">
<path id="Vector" d="M19.9737 21.2316H14.5917V16.7816V15.9816H13.7917H11.1667H10.3667V16.7816V21.2316H5.35967V14.398V13.598H4.55967H3.54248C3.15696 13.598 2.84248 13.2835 2.84248 12.898C2.84248 12.7132 2.91654 12.5344 3.04858 12.4022C3.04864 12.4021 3.0487 12.4021 3.04875 12.402C3.04877 12.402 3.04878 12.402 3.04879 12.402L12.6667 2.79109L22.2846 12.402C22.2847 12.402 22.2847 12.4021 22.2848 12.4021C22.5583 12.6759 22.5583 13.1193 22.2858 13.3929L22.2846 13.3941C22.1554 13.5243 21.9787 13.598 21.7909 13.598H20.7737H19.9737V14.398V21.2316Z" fill="white" stroke="#8E8E93" stroke-width="1.6"/>
</g>
</svg>
