<svg width="180" height="180" viewBox="0 0 180 180" fill="none" xmlns="http://www.w3.org/2000/svg">
<path fill-rule="evenodd" clip-rule="evenodd" d="M45 18.5C37.9718 18.5 31.2314 21.292 26.2617 26.2617C21.292 31.2314 18.5 37.9718 18.5 45V135C18.5 142.028 21.292 148.769 26.2617 153.738C30.8744 158.351 37.0126 161.088 43.4905 161.457L106.355 92.303L106.355 92.3027C108.085 90.4004 110.192 88.8796 112.543 87.8372C114.893 86.7949 117.434 86.2538 120.005 86.2486C122.576 86.2434 125.12 86.7741 127.475 87.8069C129.829 88.8397 131.942 90.3518 133.68 92.2468L133.68 92.2471L161.5 122.587V45C161.5 37.9718 158.708 31.2314 153.738 26.2617C148.769 21.292 142.028 18.5 135 18.5H45ZM168.5 135V135V135.997C168.5 144.617 165.076 152.885 158.98 158.98C152.885 165.075 144.618 168.5 135.997 168.5H135.12C135.08 168.5 135.04 168.5 135 168.5H45C36.1152 168.5 27.5944 164.971 21.3119 158.688C15.0295 152.406 11.5 143.885 11.5 135V45C11.5 36.1152 15.0295 27.5944 21.3119 21.3119C27.5944 15.0295 36.1152 11.5 45 11.5H135C143.885 11.5 152.406 15.0295 158.688 21.3119C164.971 27.5944 168.5 36.1152 168.5 45V135ZM161.5 135C161.5 133.759 161.284 133.165 161.006 132.678C160.621 132.001 160.027 131.344 158.742 129.937L158.74 129.935L128.52 96.9777L128.52 96.9774C127.44 95.7993 126.126 94.8593 124.663 94.2173C123.199 93.5752 121.618 93.2453 120.02 93.2486C118.421 93.2518 116.842 93.5881 115.381 94.2361C113.92 94.884 112.61 95.8293 111.535 97.0116L111.535 97.0119L52.9117 161.5H135.106C142.096 161.472 148.794 158.683 153.738 153.738C158.708 148.769 161.5 142.028 161.5 135V135ZM63.75 48.5C55.3277 48.5 48.5 55.3277 48.5 63.75C48.5 72.1723 55.3277 79 63.75 79C72.1723 79 79 72.1723 79 63.75C79 55.3277 72.1723 48.5 63.75 48.5ZM41.5 63.75C41.5 51.4617 51.4617 41.5 63.75 41.5C76.0383 41.5 86 51.4617 86 63.75C86 76.0383 76.0383 86 63.75 86C51.4617 86 41.5 76.0383 41.5 63.75Z" fill="#C7C7CC"/>
</svg>
