<svg width="50" height="50" viewBox="0 0 50 50" fill="none" xmlns="http://www.w3.org/2000/svg">
<ellipse cx="25" cy="25" rx="25" ry="25" fill="#FEE500"/>
<path d="M25.0743 14.0522C18.4851 14.0522 13.1711 18.3033 13.1711 23.4642C13.1711 26.8141 15.3817 29.7474 18.6976 31.4223L17.5753 35.614C17.5542 35.6768 17.5509 35.7442 17.5659 35.8088C17.5809 35.8734 17.6136 35.9325 17.6603 35.9795C17.7285 36.0396 17.8161 36.0728 17.9069 36.0731C17.9822 36.067 18.0536 36.0373 18.111 35.9881L22.9403 32.7317C23.6531 32.8301 24.3717 32.8812 25.0913 32.8847C31.6721 32.8847 36.9945 28.6336 36.9945 23.4642C36.9945 18.2948 31.6551 14.0522 25.0743 14.0522Z" fill="#392020"/>
</svg>
