<svg width="24" height="24" viewBox="0 0 24 24" fill="none" xmlns="http://www.w3.org/2000/svg">
<g id="mdi:announcement-outline">
<path id="Vector" d="M12.7692 7.23529H4.15385C3.58261 7.23529 3.03477 7.4584 2.63085 7.85554C2.22692 8.25268 2 8.79131 2 9.35294V13.5882C2 14.1499 2.22692 14.6885 2.63085 15.0856C3.03477 15.4828 3.58261 15.7059 4.15385 15.7059H5.23077V19.9412C5.23077 20.222 5.34423 20.4913 5.54619 20.6899C5.74815 20.8884 6.02207 21 6.30769 21H8.46154C8.74716 21 9.02108 20.8884 9.22304 20.6899C9.425 20.4913 9.53846 20.222 9.53846 19.9412V15.7059H12.7692L16.5356 18.6684C17.1917 19.1844 18.1538 18.717 18.1538 17.8824V5.05883C18.1538 4.22415 17.1917 3.75681 16.5356 4.27283L12.7692 7.23529ZM16 15.2824L13.8462 13.5882H4.15385V9.35294H13.8462L16 7.65882V15.2824ZM23 11.4706C23 13.2812 21.9662 14.9224 20.3077 15.7059V7.23529C21.9554 8.02941 23 9.67059 23 11.4706Z" fill="#98989D"/>
</g>
</svg>
