<svg width="25" height="24" viewBox="0 0 25 24" fill="none" xmlns="http://www.w3.org/2000/svg">
<g id="Icons/person_outline_24px">
<g id="icon">
<mask id="path-1-inside-1_8_87214" fill="white">
<path fill-rule="evenodd" clip-rule="evenodd" d="M7.49951 7.5C7.49951 5.01375 9.51326 3 11.9995 3C14.4858 3 16.4995 5.01375 16.4995 7.5C16.4995 9.98625 14.4858 12 11.9995 12C9.51326 12 7.49951 9.98625 7.49951 7.5ZM2.99951 17.625C2.99951 14.6325 8.99576 13.125 11.9995 13.125C15.0033 13.125 20.9995 14.6325 20.9995 17.625V21H2.99951V17.625Z"/>
</mask>
<path fill-rule="evenodd" clip-rule="evenodd" d="M7.49951 7.5C7.49951 5.01375 9.51326 3 11.9995 3C14.4858 3 16.4995 5.01375 16.4995 7.5C16.4995 9.98625 14.4858 12 11.9995 12C9.51326 12 7.49951 9.98625 7.49951 7.5ZM2.99951 17.625C2.99951 14.6325 8.99576 13.125 11.9995 13.125C15.0033 13.125 20.9995 14.6325 20.9995 17.625V21H2.99951V17.625Z" fill="white"/>
<path d="M20.9995 21V22.6H22.5995V21H20.9995ZM2.99951 21H1.39951V22.6H2.99951V21ZM11.9995 1.4C8.62961 1.4 5.89951 4.13009 5.89951 7.5H9.09951C9.09951 5.89741 10.3969 4.6 11.9995 4.6V1.4ZM18.0995 7.5C18.0995 4.13009 15.3694 1.4 11.9995 1.4V4.6C13.6021 4.6 14.8995 5.89741 14.8995 7.5H18.0995ZM11.9995 13.6C15.3694 13.6 18.0995 10.8699 18.0995 7.5H14.8995C14.8995 9.10259 13.6021 10.4 11.9995 10.4V13.6ZM5.89951 7.5C5.89951 10.8699 8.62961 13.6 11.9995 13.6V10.4C10.3969 10.4 9.09951 9.10259 9.09951 7.5H5.89951ZM11.9995 11.525C10.2976 11.525 7.84537 11.9394 5.77811 12.7676C4.7432 13.1821 3.70416 13.7398 2.8982 14.4837C2.08136 15.2375 1.39951 16.2892 1.39951 17.625H4.59951C4.59951 17.4645 4.66719 17.2056 5.06852 16.8352C5.48072 16.4547 6.12848 16.0744 6.9681 15.7381C8.64991 15.0643 10.6976 14.725 11.9995 14.725V11.525ZM22.5995 17.625C22.5995 16.2892 21.9177 15.2375 21.1008 14.4837C20.2949 13.7398 19.2558 13.1821 18.2209 12.7676C16.1537 11.9394 13.7014 11.525 11.9995 11.525V14.725C13.3014 14.725 15.3491 15.0643 17.0309 15.7381C17.8705 16.0744 18.5183 16.4547 18.9305 16.8352C19.3318 17.2056 19.3995 17.4645 19.3995 17.625H22.5995ZM22.5995 21V17.625H19.3995V21H22.5995ZM2.99951 22.6H20.9995V19.4H2.99951V22.6ZM1.39951 17.625V21H4.59951V17.625H1.39951Z" fill="#8E8E93" mask="url(#path-1-inside-1_8_87214)"/>
</g>
</g>
</svg>
