<svg width="24" height="24" viewBox="0 0 24 24" fill="none" xmlns="http://www.w3.org/2000/svg">
<g id="Icon/Logo">
<path id="Subtract" d="M12.488 3.93889H12.9719L13.1965 3.51028C13.4079 3.10707 13.8483 2.29521 14.3016 1.62347C14.4666 1.37895 14.6203 1.17274 14.7542 1.01716C14.8564 1.18949 14.9668 1.40745 15.0799 1.65623C15.3534 2.25818 15.6027 2.95118 15.7539 3.39632L15.9383 3.93889H16.5114H18.1019C18.1492 3.93889 18.2001 3.97965 18.2001 4.0453V11.9804C17.1441 12.382 16.3986 13.409 16.3986 14.605C16.3986 15.8011 17.1441 16.8281 18.2001 17.2297V22.0936C18.2001 22.1592 18.1493 22.2 18.1019 22.2H5.89825C5.85087 22.2 5.80006 22.1592 5.80006 22.0936V17.2294C6.85569 16.8276 7.60076 15.8008 7.60076 14.605C7.60076 13.4092 6.85569 12.3825 5.80006 11.9807V4.0453C5.80006 3.97965 5.85087 3.93889 5.89825 3.93889H7.26168H7.7624L7.98123 3.48852C8.14132 3.15905 8.51547 2.40826 8.90908 1.74904C9.058 1.49963 9.20086 1.27838 9.32866 1.10339C9.46076 1.28337 9.60858 1.51136 9.76221 1.76725C10.1562 2.42343 10.5307 3.16549 10.6916 3.49233L10.9115 3.93889H11.4093H12.488ZM14.5378 0.714117C14.5357 0.71246 14.5346 0.71151 14.5346 0.711448C14.5346 0.711386 14.5357 0.712216 14.5378 0.714117ZM9.59959 0.786563C9.61276 0.776295 9.61168 0.779231 9.59762 0.78812C9.59831 0.787566 9.59896 0.787047 9.59959 0.786563ZM9.05781 0.786982C9.04997 0.781995 9.04593 0.778733 9.04588 0.778349C9.04582 0.777965 9.04974 0.780459 9.05781 0.786982Z" fill="white" stroke="#8E8E93" stroke-width="1.6"/>
</g>
</svg>
