<svg width="24" height="24" viewBox="0 0 24 24" fill="none" xmlns="http://www.w3.org/2000/svg">
<g id="Icon/Logo">
<path id="Subtract" d="M12.4879 3.13889C12.9172 2.31992 14.3157 -0.23626 14.9211 0.0176511C15.4745 0.25006 16.2031 2.23183 16.5113 3.13889H18.1018C18.5979 3.13889 19 3.5447 19 4.0453V12.6085C17.9896 12.703 17.1986 13.5608 17.1986 14.605C17.1986 15.6493 17.9896 16.5071 19 16.6015V22.0936C19 22.5942 18.5979 23 18.1018 23H5.89819C5.40213 23 5 22.5942 5 22.0936V16.6015C6.01003 16.5067 6.8007 15.6491 6.8007 14.605C6.8007 13.561 6.01003 12.7034 5 12.6086V4.0453C5 3.5447 5.40213 3.13889 5.89819 3.13889H7.26162C7.58724 2.46874 8.80606 0.0367034 9.33563 0.0561025C9.86461 0.07548 11.0819 2.4741 11.4092 3.13889H12.4879Z" fill="#F683BB"/>
</g>
</svg>
