<svg width="24" height="24" viewBox="0 0 24 24" fill="none" xmlns="http://www.w3.org/2000/svg">
<g id="fluent-mdl2:user-optional">
<path id="Vector" d="M14.5 7C14.5 7.6901 14.3698 8.33789 14.1094 8.94336C13.849 9.54883 13.4941 10.0794 13.0449 10.5352C12.5957 10.9909 12.0651 11.349 11.4531 11.6094C10.8411 11.8698 10.1901 12 9.5 12C8.92708 12 8.3737 12.0749 7.83984 12.2246C7.30599 12.3743 6.80794 12.5827 6.3457 12.8496C5.88346 13.1165 5.46354 13.4421 5.08594 13.8262C4.70833 14.2103 4.38281 14.6335 4.10938 15.0957C3.83594 15.5579 3.62435 16.056 3.47461 16.5898C3.32487 17.1237 3.25 17.6771 3.25 18.25H2C2 17.4883 2.11393 16.7428 2.3418 16.0137C2.56966 15.2845 2.89844 14.6107 3.32812 13.9922C3.75781 13.3737 4.26888 12.8236 4.86133 12.3418C5.45378 11.86 6.11458 11.4922 6.84375 11.2383C6.47917 11.0039 6.15365 10.7337 5.86719 10.4277C5.58073 10.1217 5.33333 9.78646 5.125 9.42188C4.91667 9.05729 4.76367 8.67318 4.66602 8.26953C4.56836 7.86589 4.51302 7.44271 4.5 7C4.5 6.3099 4.63021 5.66211 4.89062 5.05664C5.15104 4.45117 5.50586 3.92057 5.95508 3.46484C6.4043 3.00911 6.9349 2.65104 7.54688 2.39062C8.15885 2.13021 8.8099 2 9.5 2C10.1901 2 10.8379 2.13021 11.4434 2.39062C12.0488 2.65104 12.5794 3.00586 13.0352 3.45508C13.4909 3.9043 13.849 4.4349 14.1094 5.04688C14.3698 5.65885 14.5 6.3099 14.5 7ZM9.5 10.75C10.0143 10.75 10.4993 10.6523 10.9551 10.457C11.4108 10.2617 11.8079 9.99479 12.1465 9.65625C12.485 9.31771 12.7552 8.92057 12.957 8.46484C13.1589 8.00911 13.2565 7.52083 13.25 7C13.25 6.48568 13.1523 6.00065 12.957 5.54492C12.7617 5.08919 12.4948 4.69206 12.1562 4.35352C11.8177 4.01497 11.4173 3.74479 10.9551 3.54297C10.4928 3.34115 10.0078 3.24349 9.5 3.25C8.97917 3.25 8.49414 3.34766 8.04492 3.54297C7.5957 3.73828 7.19857 4.00521 6.85352 4.34375C6.50846 4.68229 6.23828 5.08268 6.04297 5.54492C5.84766 6.00716 5.75 6.49219 5.75 7C5.75 7.52083 5.84766 8.00586 6.04297 8.45508C6.23828 8.9043 6.50521 9.30143 6.84375 9.64648C7.18229 9.99154 7.57943 10.2617 8.03516 10.457C8.49089 10.6523 8.97917 10.75 9.5 10.75ZM22 16.375C22 17.1497 21.8535 17.8789 21.5605 18.5625C21.2676 19.2461 20.8639 19.8418 20.3496 20.3496C19.8353 20.8574 19.2396 21.2578 18.5625 21.5508C17.8854 21.8438 17.1562 21.9935 16.375 22C15.6003 22 14.8711 21.8535 14.1875 21.5605C13.5039 21.2676 12.9082 20.8639 12.4004 20.3496C11.8926 19.8353 11.4922 19.2396 11.1992 18.5625C10.9062 17.8854 10.7565 17.1562 10.75 16.375C10.75 15.6003 10.8965 14.8711 11.1895 14.1875C11.4824 13.5039 11.8861 12.9082 12.4004 12.4004C12.9147 11.8926 13.5104 11.4922 14.1875 11.1992C14.8646 10.9062 15.5938 10.7565 16.375 10.75C17.1497 10.75 17.8789 10.8965 18.5625 11.1895C19.2461 11.4824 19.8418 11.8861 20.3496 12.4004C20.8574 12.9147 21.2578 13.5104 21.5508 14.1875C21.8438 14.8646 21.9935 15.5938 22 16.375ZM16.375 20.75C16.9805 20.75 17.5469 20.6361 18.0742 20.4082C18.6016 20.1803 19.0638 19.8678 19.4609 19.4707C19.8581 19.0736 20.1706 18.6113 20.3984 18.084C20.6263 17.5566 20.7435 16.987 20.75 16.375C20.75 15.7695 20.6361 15.2031 20.4082 14.6758C20.1803 14.1484 19.8678 13.6862 19.4707 13.2891C19.0736 12.8919 18.6113 12.5794 18.084 12.3516C17.5566 12.1237 16.987 12.0065 16.375 12C15.7695 12 15.2031 12.1139 14.6758 12.3418C14.1484 12.5697 13.6862 12.8822 13.2891 13.2793C12.8919 13.6764 12.5794 14.1387 12.3516 14.666C12.1237 15.1934 12.0065 15.763 12 16.375C12 16.9805 12.1139 17.5469 12.3418 18.0742C12.5697 18.6016 12.8822 19.0638 13.2793 19.4609C13.6764 19.8581 14.1387 20.1706 14.666 20.3984C15.1934 20.6263 15.763 20.7435 16.375 20.75ZM15.75 19.5V15.75H17V19.5H15.75ZM15.75 14.5V13.25H17V14.5H15.75Z" fill="#98989D" stroke="#98989D" stroke-width="0.7"/>
</g>
</svg>
