<svg width="120" height="120" viewBox="0 0 120 120" fill="none" xmlns="http://www.w3.org/2000/svg">
<rect width="120" height="120" rx="60" fill="#E5E5EA"/>
<path fill-rule="evenodd" clip-rule="evenodd" d="M78.0007 48C78.0007 57.9411 69.9419 66 60.0007 66C50.0596 66 42.0007 57.9411 42.0007 48C42.0007 38.0589 50.0596 30 60.0007 30C69.9419 30 78.0007 38.0589 78.0007 48ZM72.0007 48C72.0007 54.6274 66.6282 60 60.0007 60C53.3733 60 48.0007 54.6274 48.0007 48C48.0007 41.3726 53.3733 36 60.0007 36C66.6282 36 72.0007 41.3726 72.0007 48Z" fill="#212121"/>
<path d="M60.0007 75C40.5776 75 24.0286 86.4852 17.7246 102.576C19.2603 104.101 20.878 105.543 22.5706 106.896C27.2648 92.1231 41.9909 81 60.0007 81C78.0106 81 92.7367 92.1231 97.4309 106.896C99.1235 105.544 100.741 104.101 102.277 102.576C95.973 86.4853 79.4239 75 60.0007 75Z" fill="#212121"/>
</svg>
